<svg width="240" height="503" viewBox="0 0 240 503" fill="none" xmlns="http://www.w3.org/2000/svg">
<path fill-rule="evenodd" clip-rule="evenodd" d="M93 52.5C93 59.4036 87.4036 65 80.5 65C73.5964 65 68 59.4036 68 52.5C68 45.5964 73.5964 40 80.5 40C87.4036 40 93 45.5964 93 52.5ZM89.875 52.5C89.875 57.6777 85.6777 61.875 80.5 61.875C75.3223 61.875 71.125 57.6777 71.125 52.5C71.125 47.3223 75.3223 43.125 80.5 43.125C85.6777 43.125 89.875 47.3223 89.875 52.5ZM83 223C91.2843 223 98 216.284 98 208C98 199.716 91.2843 193 83 193C74.7157 193 68 199.716 68 208C68 216.284 74.7157 223 83 223ZM83 219.25C89.2132 219.25 94.25 214.213 94.25 208C94.25 201.787 89.2132 196.75 83 196.75C76.7868 196.75 71.75 201.787 71.75 208C71.75 214.213 76.7868 219.25 83 219.25ZM170.5 311C177.404 311 183 305.404 183 298.5C183 291.596 177.404 286 170.5 286C163.596 286 158 291.596 158 298.5C158 305.404 163.596 311 170.5 311ZM170.5 307.875C175.678 307.875 179.875 303.678 179.875 298.5C179.875 293.322 175.678 289.125 170.5 289.125C165.322 289.125 161.125 293.322 161.125 298.5C161.125 303.678 165.322 307.875 170.5 307.875ZM152.5 346C156.642 346 160 342.642 160 338.5C160 334.358 156.642 331 152.5 331C148.358 331 145 334.358 145 338.5C145 342.642 148.358 346 152.5 346ZM152.5 344.125C155.607 344.125 158.125 341.607 158.125 338.5C158.125 335.393 155.607 332.875 152.5 332.875C149.393 332.875 146.875 335.393 146.875 338.5C146.875 341.607 149.393 344.125 152.5 344.125ZM176 148.5C176 155.404 170.851 161 164.5 161C158.149 161 153 155.404 153 148.5C153 141.596 158.149 136 164.5 136C170.851 136 176 141.596 176 148.5ZM173.125 148.5C173.125 153.678 169.263 157.875 164.5 157.875C159.737 157.875 155.875 153.678 155.875 148.5C155.875 143.322 159.737 139.125 164.5 139.125C169.263 139.125 173.125 143.322 173.125 148.5ZM119.5 218C126.404 218 132 212.404 132 205.5C132 198.596 126.404 193 119.5 193C112.596 193 107 198.596 107 205.5C107 212.404 112.596 218 119.5 218ZM119.5 214.875C124.678 214.875 128.875 210.678 128.875 205.5C128.875 200.322 124.678 196.125 119.5 196.125C114.322 196.125 110.125 200.322 110.125 205.5C110.125 210.678 114.322 214.875 119.5 214.875ZM88 102C88 107.523 83.5229 112 78 112C72.4771 112 68 107.523 68 102C68 96.4771 72.4771 92 78 92C83.5229 92 88 96.4771 88 102ZM85.5 102C85.5 106.142 82.1421 109.5 78 109.5C73.8579 109.5 70.5 106.142 70.5 102C70.5 97.8579 73.8579 94.5 78 94.5C82.1421 94.5 85.5 97.8579 85.5 102Z" fill="white"/>
<path fill-rule="evenodd" clip-rule="evenodd" d="M62 82C62 87.5229 57.5228 92 52 92C46.4772 92 42 87.5229 42 82C42 76.4771 46.4772 72 52 72C57.5228 72 62 76.4771 62 82ZM59.5 82C59.5 86.1421 56.1421 89.5 52 89.5C47.8579 89.5 44.5 86.1421 44.5 82C44.5 77.8579 47.8579 74.5 52 74.5C56.1421 74.5 59.5 77.8579 59.5 82ZM100 128.95C100 133.092 96.6421 136.45 92.5 136.45C88.3579 136.45 85 133.092 85 128.95C85 124.808 88.3579 121.45 92.5 121.45C96.6421 121.45 100 124.808 100 128.95ZM98.125 128.95C98.125 132.056 95.6066 134.575 92.5 134.575C89.3934 134.575 86.875 132.056 86.875 128.95C86.875 125.843 89.3934 123.325 92.5 123.325C95.6066 123.325 98.125 125.843 98.125 128.95ZM143 238C148.523 238 153 233.523 153 228C153 222.477 148.523 218 143 218C137.477 218 133 222.477 133 228C133 233.523 137.477 238 143 238ZM143 235.5C147.142 235.5 150.5 232.142 150.5 228C150.5 223.858 147.142 220.5 143 220.5C138.858 220.5 135.5 223.858 135.5 228C135.5 232.142 138.858 235.5 143 235.5ZM156 405C161.523 405 166 400.523 166 395C166 389.477 161.523 385 156 385C150.477 385 146 389.477 146 395C146 400.523 150.477 405 156 405ZM156 402.5C160.142 402.5 163.5 399.142 163.5 395C163.5 390.858 160.142 387.5 156 387.5C151.858 387.5 148.5 390.858 148.5 395C148.5 399.142 151.858 402.5 156 402.5ZM157.5 442C161.642 442 165 438.642 165 434.5C165 430.358 161.642 427 157.5 427C153.358 427 150 430.358 150 434.5C150 438.642 153.358 442 157.5 442ZM157.5 440.125C160.607 440.125 163.125 437.607 163.125 434.5C163.125 431.393 160.607 428.875 157.5 428.875C154.393 428.875 151.875 431.393 151.875 434.5C151.875 437.607 154.393 440.125 157.5 440.125ZM150 318.5C150 322.642 146.642 326 142.5 326C138.358 326 135 322.642 135 318.5C135 314.358 138.358 311 142.5 311C146.642 311 150 314.358 150 318.5ZM148.125 318.5C148.125 321.607 145.607 324.125 142.5 324.125C139.393 324.125 136.875 321.607 136.875 318.5C136.875 315.393 139.393 312.875 142.5 312.875C145.607 312.875 148.125 315.393 148.125 318.5ZM129.5 186C133.642 186 137 182.642 137 178.5C137 174.358 133.642 171 129.5 171C125.358 171 122 174.358 122 178.5C122 182.642 125.358 186 129.5 186ZM129.5 184.125C132.607 184.125 135.125 181.607 135.125 178.5C135.125 175.393 132.607 172.875 129.5 172.875C126.393 172.875 123.875 175.393 123.875 178.5C123.875 181.607 126.393 184.125 129.5 184.125ZM123 385C128.523 385 133 380.523 133 375C133 369.477 128.523 365 123 365C117.477 365 113 369.477 113 375C113 380.523 117.477 385 123 385ZM123 382.5C127.142 382.5 130.5 379.142 130.5 375C130.5 370.858 127.142 367.5 123 367.5C118.858 367.5 115.5 370.858 115.5 375C115.5 379.142 118.858 382.5 123 382.5ZM122 92C122 97.5229 117.523 102 112 102C106.477 102 102 97.5229 102 92C102 86.4771 106.477 82 112 82C117.523 82 122 86.4771 122 92ZM119.5 92C119.5 96.1421 116.142 99.5 112 99.5C107.858 99.5 104.5 96.1421 104.5 92C104.5 87.8579 107.858 84.5 112 84.5C116.142 84.5 119.5 87.8579 119.5 92Z" fill="white"/>
<path fill-rule="evenodd" clip-rule="evenodd" d="M202 356C202 361.523 197.523 366 192 366C186.477 366 182 361.523 182 356C182 350.477 186.477 346 192 346C197.523 346 202 350.477 202 356ZM199.5 356C199.5 360.142 196.142 363.5 192 363.5C187.858 363.5 184.5 360.142 184.5 356C184.5 351.858 187.858 348.5 192 348.5C196.142 348.5 199.5 351.858 199.5 356ZM128 481C128 489.284 121.284 496 113 496C104.716 496 98 489.284 98 481C98 472.716 104.716 466 113 466C121.284 466 128 472.716 128 481ZM124.25 481C124.25 487.213 119.213 492.25 113 492.25C106.787 492.25 101.75 487.213 101.75 481C101.75 474.787 106.787 469.75 113 469.75C119.213 469.75 124.25 474.787 124.25 481ZM147.5 489C151.642 489 155 485.642 155 481.5C155 477.358 151.642 474 147.5 474C143.358 474 140 477.358 140 481.5C140 485.642 143.358 489 147.5 489ZM147.5 487.125C150.607 487.125 153.125 484.607 153.125 481.5C153.125 478.393 150.607 475.875 147.5 475.875C144.393 475.875 141.875 478.393 141.875 481.5C141.875 484.607 144.393 487.125 147.5 487.125ZM216 464.5C216 474.165 208.165 482 198.5 482C188.835 482 181 474.165 181 464.5C181 454.835 188.835 447 198.5 447C208.165 447 216 454.835 216 464.5ZM211.625 464.5C211.625 471.749 205.749 477.625 198.5 477.625C191.251 477.625 185.375 471.749 185.375 464.5C185.375 457.251 191.251 451.375 198.5 451.375C205.749 451.375 211.625 457.251 211.625 464.5Z" fill="white"/>
</svg>
