<svg width="240" height="503" viewBox="0 0 240 503" fill="none" xmlns="http://www.w3.org/2000/svg">
<path fill-rule="evenodd" clip-rule="evenodd" d="M155 132C163.284 132 170 125.284 170 117C170 108.716 163.284 102 155 102C146.716 102 140 108.716 140 117C140 125.284 146.716 132 155 132ZM155 128.25C161.213 128.25 166.25 123.213 166.25 117C166.25 110.787 161.213 105.75 155 105.75C148.787 105.75 143.75 110.787 143.75 117C143.75 123.213 148.787 128.25 155 128.25ZM84 184C84 189.523 79.5229 194 74 194C68.4771 194 64 189.523 64 184C64 178.477 68.4771 174 74 174C79.5229 174 84 178.477 84 184ZM81.5 184C81.5 188.142 78.1421 191.5 74 191.5C69.8579 191.5 66.5 188.142 66.5 184C66.5 179.858 69.8579 176.5 74 176.5C78.1421 176.5 81.5 179.858 81.5 184ZM178 285.5C178 292.404 172.404 298 165.5 298C158.596 298 153 292.404 153 285.5C153 278.596 158.596 273 165.5 273C172.404 273 178 278.596 178 285.5ZM174.875 285.5C174.875 290.678 170.678 294.875 165.5 294.875C160.322 294.875 156.125 290.678 156.125 285.5C156.125 280.322 160.322 276.125 165.5 276.125C170.678 276.125 174.875 280.322 174.875 285.5ZM174.5 491C181.404 491 187 485.404 187 478.5C187 471.596 181.404 466 174.5 466C167.596 466 162 471.596 162 478.5C162 485.404 167.596 491 174.5 491ZM174.5 487.875C179.678 487.875 183.875 483.678 183.875 478.5C183.875 473.322 179.678 469.125 174.5 469.125C169.322 469.125 165.125 473.322 165.125 478.5C165.125 483.678 169.322 487.875 174.5 487.875ZM157 315C157 323.284 150.284 330 142 330C133.716 330 127 323.284 127 315C127 306.716 133.716 300 142 300C150.284 300 157 306.716 157 315ZM153.25 315C153.25 321.213 148.213 326.25 142 326.25C135.787 326.25 130.75 321.213 130.75 315C130.75 308.787 135.787 303.75 142 303.75C148.213 303.75 153.25 308.787 153.25 315ZM114 170.5C114 177.404 108.404 183 101.5 183C94.5964 183 89 177.404 89 170.5C89 163.596 94.5964 158 101.5 158C108.404 158 114 163.596 114 170.5ZM110.875 170.5C110.875 175.678 106.678 179.875 101.5 179.875C96.3223 179.875 92.125 175.678 92.125 170.5C92.125 165.322 96.3223 161.125 101.5 161.125C106.678 161.125 110.875 165.322 110.875 170.5Z" fill="white"/>
<path fill-rule="evenodd" clip-rule="evenodd" d="M40 41C40 46.5228 35.5228 51 30 51C24.4772 51 20 46.5228 20 41C20 35.4772 24.4772 31 30 31C35.5228 31 40 35.4772 40 41ZM37.5 41C37.5 45.1421 34.1421 48.5 30 48.5C25.8579 48.5 22.5 45.1421 22.5 41C22.5 36.8579 25.8579 33.5 30 33.5C34.1421 33.5 37.5 36.8579 37.5 41ZM62 62.5C62 66.6421 58.6421 70 54.5 70C50.3579 70 47 66.6421 47 62.5C47 58.3579 50.3579 55 54.5 55C58.6421 55 62 58.3579 62 62.5ZM60.125 62.5C60.125 65.6066 57.6066 68.125 54.5 68.125C51.3934 68.125 48.875 65.6066 48.875 62.5C48.875 59.3934 51.3934 56.875 54.5 56.875C57.6066 56.875 60.125 59.3934 60.125 62.5ZM145 360C145 365.523 140.523 370 135 370C129.477 370 125 365.523 125 360C125 354.477 129.477 350 135 350C140.523 350 145 354.477 145 360ZM142.5 360C142.5 364.142 139.142 367.5 135 367.5C130.858 367.5 127.5 364.142 127.5 360C127.5 355.858 130.858 352.5 135 352.5C139.142 352.5 142.5 355.858 142.5 360ZM117.5 202C121.642 202 125 198.642 125 194.5C125 190.358 121.642 187 117.5 187C113.358 187 110 190.358 110 194.5C110 198.642 113.358 202 117.5 202ZM117.5 200.125C120.607 200.125 123.125 197.607 123.125 194.5C123.125 191.393 120.607 188.875 117.5 188.875C114.393 188.875 111.875 191.393 111.875 194.5C111.875 197.607 114.393 200.125 117.5 200.125ZM78 93.9497C78 98.0918 74.6421 101.45 70.5 101.45C66.3579 101.45 63 98.0918 63 93.9497C63 89.8076 66.3579 86.4497 70.5 86.4497C74.6421 86.4497 78 89.8076 78 93.9497ZM76.125 93.9497C76.125 97.0563 73.6066 99.5747 70.5 99.5747C67.3934 99.5747 64.875 97.0563 64.875 93.9497C64.875 90.8431 67.3934 88.3247 70.5 88.3247C73.6066 88.3247 76.125 90.8431 76.125 93.9497ZM135.5 407C139.642 407 143 403.642 143 399.5C143 395.358 139.642 392 135.5 392C131.358 392 128 395.358 128 399.5C128 403.642 131.358 407 135.5 407ZM135.5 405.125C138.607 405.125 141.125 402.607 141.125 399.5C141.125 396.393 138.607 393.875 135.5 393.875C132.393 393.875 129.875 396.393 129.875 399.5C129.875 402.607 132.393 405.125 135.5 405.125ZM134 286.5C134 290.642 130.642 294 126.5 294C122.358 294 119 290.642 119 286.5C119 282.358 122.358 279 126.5 279C130.642 279 134 282.358 134 286.5ZM132.125 286.5C132.125 289.607 129.607 292.125 126.5 292.125C123.393 292.125 120.875 289.607 120.875 286.5C120.875 283.393 123.393 280.875 126.5 280.875C129.607 280.875 132.125 283.393 132.125 286.5ZM108.5 146C112.642 146 116 142.642 116 138.5C116 134.358 112.642 131 108.5 131C104.358 131 101 134.358 101 138.5C101 142.642 104.358 146 108.5 146ZM108.5 144.125C111.607 144.125 114.125 141.607 114.125 138.5C114.125 135.393 111.607 132.875 108.5 132.875C105.393 132.875 102.875 135.393 102.875 138.5C102.875 141.607 105.393 144.125 108.5 144.125Z" fill="white"/>
<path fill-rule="evenodd" clip-rule="evenodd" d="M103 59C103 64.5229 98.5229 69 93 69C87.4771 69 83 64.5229 83 59C83 53.4772 87.4771 49 93 49C98.5229 49 103 53.4772 103 59ZM100.5 59C100.5 63.1421 97.1421 66.5 93 66.5C88.8579 66.5 85.5 63.1421 85.5 59C85.5 54.8579 88.8579 51.5 93 51.5C97.1421 51.5 100.5 54.8579 100.5 59ZM110 306C112.761 306 115 303.761 115 301C115 298.239 112.761 296 110 296C107.239 296 105 298.239 105 301C105 303.761 107.239 306 110 306ZM110 304.75C112.071 304.75 113.75 303.071 113.75 301C113.75 298.929 112.071 297.25 110 297.25C107.929 297.25 106.25 298.929 106.25 301C106.25 303.071 107.929 304.75 110 304.75ZM101.5 350C108.404 350 114 344.404 114 337.5C114 330.596 108.404 325 101.5 325C94.5964 325 89 330.596 89 337.5C89 344.404 94.5964 350 101.5 350ZM101.5 346.875C106.678 346.875 110.875 342.678 110.875 337.5C110.875 332.322 106.678 328.125 101.5 328.125C96.3223 328.125 92.125 332.322 92.125 337.5C92.125 342.678 96.3223 346.875 101.5 346.875ZM174 338C179.523 338 184 333.523 184 328C184 322.477 179.523 318 174 318C168.477 318 164 322.477 164 328C164 333.523 168.477 338 174 338ZM174 335.5C178.142 335.5 181.5 332.142 181.5 328C181.5 323.858 178.142 320.5 174 320.5C169.858 320.5 166.5 323.858 166.5 328C166.5 332.142 169.858 335.5 174 335.5ZM110 452C110 460.284 103.284 467 95 467C86.7157 467 80 460.284 80 452C80 443.716 86.7157 437 95 437C103.284 437 110 443.716 110 452ZM106.25 452C106.25 458.213 101.213 463.25 95 463.25C88.7868 463.25 83.75 458.213 83.75 452C83.75 445.787 88.7868 440.75 95 440.75C101.213 440.75 106.25 445.787 106.25 452ZM135.5 466C139.642 466 143 462.642 143 458.5C143 454.358 139.642 451 135.5 451C131.358 451 128 454.358 128 458.5C128 462.642 131.358 466 135.5 466ZM135.5 464.125C138.607 464.125 141.125 461.607 141.125 458.5C141.125 455.393 138.607 452.875 135.5 452.875C132.393 452.875 129.875 455.393 129.875 458.5C129.875 461.607 132.393 464.125 135.5 464.125ZM200 441.5C200 448.404 194.404 454 187.5 454C180.596 454 175 448.404 175 441.5C175 434.596 180.596 429 187.5 429C194.404 429 200 434.596 200 441.5ZM196.875 441.5C196.875 446.678 192.678 450.875 187.5 450.875C182.322 450.875 178.125 446.678 178.125 441.5C178.125 436.322 182.322 432.125 187.5 432.125C192.678 432.125 196.875 436.322 196.875 441.5Z" fill="white"/>
</svg>
