<svg width="240" height="503" viewBox="0 0 240 503" fill="none" xmlns="http://www.w3.org/2000/svg">
<g clip-path="url(#clip0)">
<path fill-rule="evenodd" clip-rule="evenodd" d="M136.5 79C146.165 79 154 71.165 154 61.5C154 51.835 146.165 44 136.5 44C126.835 44 119 51.835 119 61.5C119 71.165 126.835 79 136.5 79ZM136.5 74.625C143.749 74.625 149.625 68.7487 149.625 61.5C149.625 54.2513 143.749 48.375 136.5 48.375C129.251 48.375 123.375 54.2513 123.375 61.5C123.375 68.7487 129.251 74.625 136.5 74.625ZM73 79C73 84.5229 68.5229 89 63 89C57.4772 89 53 84.5229 53 79C53 73.4771 57.4772 69 63 69C68.5229 69 73 73.4771 73 79ZM70.5 79C70.5 83.1421 67.1421 86.5 63 86.5C58.8579 86.5 55.5 83.1421 55.5 79C55.5 74.8579 58.8579 71.5 63 71.5C67.1421 71.5 70.5 74.8579 70.5 79ZM67.5 168C74.4036 168 80 162.404 80 155.5C80 148.596 74.4036 143 67.5 143C60.5964 143 55 148.596 55 155.5C55 162.404 60.5964 168 67.5 168ZM67.5 164.875C72.6777 164.875 76.875 160.678 76.875 155.5C76.875 150.322 72.6777 146.125 67.5 146.125C62.3223 146.125 58.125 150.322 58.125 155.5C58.125 160.678 62.3223 164.875 67.5 164.875ZM156.5 265C163.404 265 169 259.404 169 252.5C169 245.596 163.404 240 156.5 240C149.596 240 144 245.596 144 252.5C144 259.404 149.596 265 156.5 265ZM156.5 261.875C161.678 261.875 165.875 257.678 165.875 252.5C165.875 247.322 161.678 243.125 156.5 243.125C151.322 243.125 147.125 247.322 147.125 252.5C147.125 257.678 151.322 261.875 156.5 261.875ZM173 445C173 450.523 168.523 455 163 455C157.477 455 153 450.523 153 445C153 439.477 157.477 435 163 435C168.523 435 173 439.477 173 445ZM170.5 445C170.5 449.142 167.142 452.5 163 452.5C158.858 452.5 155.5 449.142 155.5 445C155.5 440.858 158.858 437.5 163 437.5C167.142 437.5 170.5 440.858 170.5 445ZM127 294C135.284 294 142 287.284 142 279C142 270.716 135.284 264 127 264C118.716 264 112 270.716 112 279C112 287.284 118.716 294 127 294ZM127 290.25C133.213 290.25 138.25 285.213 138.25 279C138.25 272.787 133.213 267.75 127 267.75C120.787 267.75 115.75 272.787 115.75 279C115.75 285.213 120.787 290.25 127 290.25ZM90 120.5C90 127.404 84.4036 133 77.5 133C70.5964 133 65 127.404 65 120.5C65 113.596 70.5964 108 77.5 108C84.4036 108 90 113.596 90 120.5ZM86.875 120.5C86.875 125.678 82.6777 129.875 77.5 129.875C72.3223 129.875 68.125 125.678 68.125 120.5C68.125 115.322 72.3223 111.125 77.5 111.125C82.6777 111.125 86.875 115.322 86.875 120.5Z" fill="white"/>
<path fill-rule="evenodd" clip-rule="evenodd" d="M99 96C99 98.7614 96.7614 101 94 101C91.2386 101 89 98.7614 89 96C89 93.2386 91.2386 91 94 91C96.7614 91 99 93.2386 99 96ZM97.75 96C97.75 98.0711 96.0711 99.75 94 99.75C91.9289 99.75 90.25 98.0711 90.25 96C90.25 93.9289 91.9289 92.25 94 92.25C96.0711 92.25 97.75 93.9289 97.75 96ZM102.5 158C106.642 158 110 154.642 110 150.5C110 146.358 106.642 143 102.5 143C98.3579 143 95 146.358 95 150.5C95 154.642 98.3579 158 102.5 158ZM102.5 156.125C105.607 156.125 108.125 153.607 108.125 150.5C108.125 147.393 105.607 144.875 102.5 144.875C99.3934 144.875 96.875 147.393 96.875 150.5C96.875 153.607 99.3934 156.125 102.5 156.125ZM114.5 330C121.404 330 127 324.404 127 317.5C127 310.596 121.404 305 114.5 305C107.596 305 102 310.596 102 317.5C102 324.404 107.596 330 114.5 330ZM114.5 326.875C119.678 326.875 123.875 322.678 123.875 317.5C123.875 312.322 119.678 308.125 114.5 308.125C109.322 308.125 105.125 312.322 105.125 317.5C105.125 322.678 109.322 326.875 114.5 326.875ZM127 356C127 358.761 124.761 361 122 361C119.239 361 117 358.761 117 356C117 353.239 119.239 351 122 351C124.761 351 127 353.239 127 356ZM125.75 356C125.75 358.071 124.071 359.75 122 359.75C119.929 359.75 118.25 358.071 118.25 356C118.25 353.929 119.929 352.25 122 352.25C124.071 352.25 125.75 353.929 125.75 356ZM114.5 254C118.642 254 122 250.642 122 246.5C122 242.358 118.642 239 114.5 239C110.358 239 107 242.358 107 246.5C107 250.642 110.358 254 114.5 254ZM114.5 252.125C117.607 252.125 120.125 249.607 120.125 246.5C120.125 243.393 117.607 240.875 114.5 240.875C111.393 240.875 108.875 243.393 108.875 246.5C108.875 249.607 111.393 252.125 114.5 252.125ZM83 294C85.7614 294 88 291.761 88 289C88 286.239 85.7614 284 83 284C80.2386 284 78 286.239 78 289C78 291.761 80.2386 294 83 294ZM83 292.75C85.0711 292.75 86.75 291.071 86.75 289C86.75 286.929 85.0711 285.25 83 285.25C80.9289 285.25 79.25 286.929 79.25 289C79.25 291.071 80.9289 292.75 83 292.75ZM173 289C173 294.523 168.523 299 163 299C157.477 299 153 294.523 153 289C153 283.477 157.477 279 163 279C168.523 279 173 283.477 173 289ZM170.5 289C170.5 293.142 167.142 296.5 163 296.5C158.858 296.5 155.5 293.142 155.5 289C155.5 284.858 158.858 281.5 163 281.5C167.142 281.5 170.5 284.858 170.5 289ZM84 428C92.2843 428 99 421.284 99 413C99 404.716 92.2843 398 84 398C75.7157 398 69 404.716 69 413C69 421.284 75.7157 428 84 428ZM84 424.25C90.2132 424.25 95.25 419.213 95.25 413C95.25 406.787 90.2132 401.75 84 401.75C77.7868 401.75 72.75 406.787 72.75 413C72.75 419.213 77.7868 424.25 84 424.25ZM131 421.5C131 425.642 127.642 429 123.5 429C119.358 429 116 425.642 116 421.5C116 417.358 119.358 414 123.5 414C127.642 414 131 417.358 131 421.5ZM129.125 421.5C129.125 424.607 126.607 427.125 123.5 427.125C120.393 427.125 117.875 424.607 117.875 421.5C117.875 418.393 120.393 415.875 123.5 415.875C126.607 415.875 129.125 418.393 129.125 421.5ZM171.5 400C178.404 400 184 394.404 184 387.5C184 380.596 178.404 375 171.5 375C164.596 375 159 380.596 159 387.5C159 394.404 164.596 400 171.5 400ZM171.5 396.875C176.678 396.875 180.875 392.678 180.875 387.5C180.875 382.322 176.678 378.125 171.5 378.125C166.322 378.125 162.125 382.322 162.125 387.5C162.125 392.678 166.322 396.875 171.5 396.875ZM174 199.5C174 203.642 170.642 207 166.5 207C162.358 207 159 203.642 159 199.5C159 195.358 162.358 192 166.5 192C170.642 192 174 195.358 174 199.5ZM172.125 199.5C172.125 202.607 169.607 205.125 166.5 205.125C163.393 205.125 160.875 202.607 160.875 199.5C160.875 196.393 163.393 193.875 166.5 193.875C169.607 193.875 172.125 196.393 172.125 199.5Z" fill="white"/>
<path fill-rule="evenodd" clip-rule="evenodd" d="M151.451 449.837C151.451 458.032 144.23 464.675 135.324 464.675C126.417 464.675 119.196 458.032 119.196 449.837C119.196 441.643 126.417 435 135.324 435C144.23 435 151.451 441.643 151.451 449.837ZM147.419 449.837C147.419 455.983 142.004 460.965 135.323 460.965C128.643 460.965 123.228 455.983 123.228 449.837C123.228 443.692 128.643 438.709 135.323 438.709C142.004 438.709 147.419 443.692 147.419 449.837ZM94.6176 458.914C98.4349 458.914 101.529 456.067 101.529 452.555C101.529 449.043 98.4349 446.196 94.6176 446.196C90.8004 446.196 87.7059 449.043 87.7059 452.555C87.7059 456.067 90.8004 458.914 94.6176 458.914ZM94.6177 457.324C97.4806 457.324 99.8015 455.189 99.8015 452.555C99.8015 449.921 97.4806 447.786 94.6177 447.786C91.7547 447.786 89.4338 449.921 89.4338 452.555C89.4338 455.189 91.7547 457.324 94.6177 457.324ZM110.863 478.349C110.863 485.252 105.266 490.849 98.3627 490.849C91.4592 490.849 85.8627 485.252 85.8627 478.349C85.8627 471.445 91.4592 465.849 98.3627 465.849C105.266 465.849 110.863 471.445 110.863 478.349ZM107.738 478.349C107.738 483.526 103.54 487.724 98.3627 487.724C93.1851 487.724 88.9877 483.526 88.9877 478.349C88.9877 473.171 93.1851 468.974 98.3627 468.974C103.54 468.974 107.738 473.171 107.738 478.349ZM189 558.003C189 563.856 183.843 568.601 177.48 568.601C171.118 568.601 165.961 563.856 165.961 558.003C165.961 552.149 171.118 547.405 177.48 547.405C183.843 547.405 189 552.149 189 558.003ZM186.12 558.003C186.12 562.393 182.252 565.951 177.48 565.951C172.709 565.951 168.841 562.393 168.841 558.003C168.841 553.613 172.709 550.054 177.48 550.054C182.252 550.054 186.12 553.613 186.12 558.003ZM132.324 605.45C138.686 605.45 143.843 600.705 143.843 594.852C143.843 588.998 138.686 584.253 132.324 584.253C125.961 584.253 120.804 588.998 120.804 594.852C120.804 600.705 125.961 605.45 132.324 605.45ZM132.324 602.8C137.095 602.8 140.963 599.241 140.963 594.852C140.963 590.462 137.095 586.903 132.324 586.903C127.552 586.903 123.684 590.462 123.684 594.852C123.684 599.241 127.552 602.8 132.324 602.8ZM115.353 533.948C115.353 537.46 112.258 540.307 108.441 540.307C104.624 540.307 101.529 537.46 101.529 533.948C101.529 530.437 104.624 527.59 108.441 527.59C112.258 527.59 115.353 530.437 115.353 533.948ZM113.625 533.948C113.625 536.582 111.304 538.718 108.441 538.718C105.578 538.718 103.257 536.582 103.257 533.948C103.257 531.315 105.578 529.179 108.441 529.179C111.304 529.179 113.625 531.315 113.625 533.948ZM149.451 578.96C149.451 582.472 146.356 585.319 142.539 585.319C138.722 585.319 135.627 582.472 135.627 578.96C135.627 575.448 138.722 572.601 142.539 572.601C146.356 572.601 149.451 575.448 149.451 578.96ZM147.723 578.96C147.723 581.594 145.402 583.729 142.539 583.729C139.676 583.729 137.355 581.594 137.355 578.96C137.355 576.326 139.676 574.191 142.539 574.191C145.402 574.191 147.723 576.326 147.723 578.96ZM73.6471 501.002C78.7368 501.002 82.8628 497.206 82.8628 492.524C82.8628 487.841 78.7368 484.045 73.6471 484.045C68.5574 484.045 64.4314 487.841 64.4314 492.524C64.4314 497.206 68.5574 501.002 73.6471 501.002ZM73.6471 498.882C77.4643 498.882 80.5588 496.036 80.5588 492.524C80.5588 489.012 77.4643 486.165 73.6471 486.165C69.8298 486.165 66.7353 489.012 66.7353 492.524C66.7353 496.036 69.8298 498.882 73.6471 498.882Z" fill="white"/>
</g>
<defs>
<clipPath id="clip0">
<rect width="240" height="503" fill="white"/>
</clipPath>
</defs>
</svg>
