<svg width="240" height="503" viewBox="0 0 240 503" fill="none" xmlns="http://www.w3.org/2000/svg">
<path fill-rule="evenodd" clip-rule="evenodd" d="M76.5 57C83.4036 57 89 51.4036 89 44.5C89 37.5964 83.4036 32 76.5 32C69.5964 32 64 37.5964 64 44.5C64 51.4036 69.5964 57 76.5 57ZM76.5 53.875C81.6777 53.875 85.875 49.6777 85.875 44.5C85.875 39.3223 81.6777 35.125 76.5 35.125C71.3223 35.125 67.125 39.3223 67.125 44.5C67.125 49.6777 71.3223 53.875 76.5 53.875ZM84 193C84 198.523 79.5229 203 74 203C68.4771 203 64 198.523 64 193C64 187.477 68.4771 183 74 183C79.5229 183 84 187.477 84 193ZM81.5 193C81.5 197.142 78.1421 200.5 74 200.5C69.8579 200.5 66.5 197.142 66.5 193C66.5 188.858 69.8579 185.5 74 185.5C78.1421 185.5 81.5 188.858 81.5 193ZM179 290.5C179 297.404 173.404 303 166.5 303C159.596 303 154 297.404 154 290.5C154 283.596 159.596 278 166.5 278C173.404 278 179 283.596 179 290.5ZM175.875 290.5C175.875 295.678 171.678 299.875 166.5 299.875C161.322 299.875 157.125 295.678 157.125 290.5C157.125 285.322 161.322 281.125 166.5 281.125C171.678 281.125 175.875 285.322 175.875 290.5ZM166 335.5C166 342.404 160.404 348 153.5 348C146.596 348 141 342.404 141 335.5C141 328.596 146.596 323 153.5 323C160.404 323 166 328.596 166 335.5ZM162.875 335.5C162.875 340.678 158.678 344.875 153.5 344.875C148.322 344.875 144.125 340.678 144.125 335.5C144.125 330.322 148.322 326.125 153.5 326.125C158.678 326.125 162.875 330.322 162.875 335.5ZM164 152C172.284 152 179 145.284 179 137C179 128.716 172.284 122 164 122C155.716 122 149 128.716 149 137C149 145.284 155.716 152 164 152ZM164 148.25C170.213 148.25 175.25 143.213 175.25 137C175.25 130.787 170.213 125.75 164 125.75C157.787 125.75 152.75 130.787 152.75 137C152.75 143.213 157.787 148.25 164 148.25ZM129 189.5C129 196.404 123.404 202 116.5 202C109.596 202 104 196.404 104 189.5C104 182.596 109.596 177 116.5 177C123.404 177 129 182.596 129 189.5ZM125.875 189.5C125.875 194.678 121.678 198.875 116.5 198.875C111.322 198.875 107.125 194.678 107.125 189.5C107.125 184.322 111.322 180.125 116.5 180.125C121.678 180.125 125.875 184.322 125.875 189.5ZM73 92C78.5229 92 83 87.5229 83 82C83 76.4771 78.5229 72 73 72C67.4771 72 63 76.4771 63 82C63 87.5229 67.4771 92 73 92ZM73 89.5C77.1421 89.5 80.5 86.1421 80.5 82C80.5 77.8579 77.1421 74.5 73 74.5C68.8579 74.5 65.5 77.8579 65.5 82C65.5 86.1421 68.8579 89.5 73 89.5ZM165 376C165 381.523 160.523 386 155 386C149.477 386 145 381.523 145 376C145 370.477 149.477 366 155 366C160.523 366 165 370.477 165 376ZM162.5 376C162.5 380.142 159.142 383.5 155 383.5C150.858 383.5 147.5 380.142 147.5 376C147.5 371.858 150.858 368.5 155 368.5C159.142 368.5 162.5 371.858 162.5 376Z" fill="white"/>
<path fill-rule="evenodd" clip-rule="evenodd" d="M51 50C51 55.5228 46.5228 60 41 60C35.4772 60 31 55.5228 31 50C31 44.4772 35.4772 40 41 40C46.5228 40 51 44.4772 51 50ZM48.5 50C48.5 54.1421 45.1421 57.5 41 57.5C36.8579 57.5 33.5 54.1421 33.5 50C33.5 45.8579 36.8579 42.5 41 42.5C45.1421 42.5 48.5 45.8579 48.5 50ZM97 107.95C97 112.092 93.6421 115.45 89.5 115.45C85.3579 115.45 82 112.092 82 107.95C82 103.808 85.3579 100.45 89.5 100.45C93.6421 100.45 97 103.808 97 107.95ZM95.125 107.95C95.125 111.056 92.6066 113.575 89.5 113.575C86.3934 113.575 83.875 111.056 83.875 107.95C83.875 104.843 86.3934 102.325 89.5 102.325C92.6066 102.325 95.125 104.843 95.125 107.95ZM150 207C150 212.523 145.523 217 140 217C134.477 217 130 212.523 130 207C130 201.477 134.477 197 140 197C145.523 197 150 201.477 150 207ZM147.5 207C147.5 211.142 144.142 214.5 140 214.5C135.858 214.5 132.5 211.142 132.5 207C132.5 202.858 135.858 199.5 140 199.5C144.142 199.5 147.5 202.858 147.5 207ZM154.5 421C158.642 421 162 417.642 162 413.5C162 409.358 158.642 406 154.5 406C150.358 406 147 409.358 147 413.5C147 417.642 150.358 421 154.5 421ZM154.5 419.125C157.607 419.125 160.125 416.607 160.125 413.5C160.125 410.393 157.607 407.875 154.5 407.875C151.393 407.875 148.875 410.393 148.875 413.5C148.875 416.607 151.393 419.125 154.5 419.125ZM145 296.5C145 300.642 141.642 304 137.5 304C133.358 304 130 300.642 130 296.5C130 292.358 133.358 289 137.5 289C141.642 289 145 292.358 145 296.5ZM143.125 296.5C143.125 299.607 140.607 302.125 137.5 302.125C134.393 302.125 131.875 299.607 131.875 296.5C131.875 293.393 134.393 290.875 137.5 290.875C140.607 290.875 143.125 293.393 143.125 296.5ZM119.5 156C123.642 156 127 152.642 127 148.5C127 144.358 123.642 141 119.5 141C115.358 141 112 144.358 112 148.5C112 152.642 115.358 156 119.5 156ZM119.5 154.125C122.607 154.125 125.125 151.607 125.125 148.5C125.125 145.393 122.607 142.875 119.5 142.875C116.393 142.875 113.875 145.393 113.875 148.5C113.875 151.607 116.393 154.125 119.5 154.125Z" fill="white"/>
<path fill-rule="evenodd" clip-rule="evenodd" d="M115 66C115 71.5229 110.523 76 105 76C99.4771 76 95 71.5229 95 66C95 60.4772 99.4771 56 105 56C110.523 56 115 60.4772 115 66ZM112.5 66C112.5 70.1421 109.142 73.5 105 73.5C100.858 73.5 97.5 70.1421 97.5 66C97.5 61.8579 100.858 58.5 105 58.5C109.142 58.5 112.5 61.8579 112.5 66ZM122 343C122 348.523 117.523 353 112 353C106.477 353 102 348.523 102 343C102 337.477 106.477 333 112 333C117.523 333 122 337.477 122 343ZM119.5 343C119.5 347.142 116.142 350.5 112 350.5C107.858 350.5 104.5 347.142 104.5 343C104.5 338.858 107.858 335.5 112 335.5C116.142 335.5 119.5 338.858 119.5 343ZM186 343C191.523 343 196 338.523 196 333C196 327.477 191.523 323 186 323C180.477 323 176 327.477 176 333C176 338.523 180.477 343 186 343ZM186 340.5C190.142 340.5 193.5 337.142 193.5 333C193.5 328.858 190.142 325.5 186 325.5C181.858 325.5 178.5 328.858 178.5 333C178.5 337.142 181.858 340.5 186 340.5ZM122 458C122 466.284 115.284 473 107 473C98.7157 473 92 466.284 92 458C92 449.716 98.7157 443 107 443C115.284 443 122 449.716 122 458ZM118.25 458C118.25 464.213 113.213 469.25 107 469.25C100.787 469.25 95.75 464.213 95.75 458C95.75 451.787 100.787 446.75 107 446.75C113.213 446.75 118.25 451.787 118.25 458ZM143.5 471C147.642 471 151 467.642 151 463.5C151 459.358 147.642 456 143.5 456C139.358 456 136 459.358 136 463.5C136 467.642 139.358 471 143.5 471ZM143.5 469.125C146.607 469.125 149.125 466.607 149.125 463.5C149.125 460.393 146.607 457.875 143.5 457.875C140.393 457.875 137.875 460.393 137.875 463.5C137.875 466.607 140.393 469.125 143.5 469.125ZM207 450C207 458.284 200.284 465 192 465C183.716 465 177 458.284 177 450C177 441.716 183.716 435 192 435C200.284 435 207 441.716 207 450ZM203.25 450C203.25 456.213 198.213 461.25 192 461.25C185.787 461.25 180.75 456.213 180.75 450C180.75 443.787 185.787 438.75 192 438.75C198.213 438.75 203.25 443.787 203.25 450Z" fill="white"/>
</svg>
