<svg width="240" height="503" viewBox="0 0 240 503" fill="none" xmlns="http://www.w3.org/2000/svg">
<path fill-rule="evenodd" clip-rule="evenodd" d="M173 111.5C173 121.165 165.165 129 155.5 129C145.835 129 138 121.165 138 111.5C138 101.835 145.835 94 155.5 94C165.165 94 173 101.835 173 111.5ZM168.625 111.5C168.625 118.749 162.749 124.625 155.5 124.625C148.251 124.625 142.375 118.749 142.375 111.5C142.375 104.251 148.251 98.375 155.5 98.375C162.749 98.375 168.625 104.251 168.625 111.5ZM72 188C77.5229 188 82 183.523 82 178C82 172.477 77.5229 168 72 168C66.4771 168 62 172.477 62 178C62 183.523 66.4771 188 72 188ZM72 185.5C76.1421 185.5 79.5 182.142 79.5 178C79.5 173.858 76.1421 170.5 72 170.5C67.8579 170.5 64.5 173.858 64.5 178C64.5 182.142 67.8579 185.5 72 185.5ZM163.5 292C170.404 292 176 286.404 176 279.5C176 272.596 170.404 267 163.5 267C156.596 267 151 272.596 151 279.5C151 286.404 156.596 292 163.5 292ZM163.5 288.875C168.678 288.875 172.875 284.678 172.875 279.5C172.875 274.322 168.678 270.125 163.5 270.125C158.322 270.125 154.125 274.322 154.125 279.5C154.125 284.678 158.322 288.875 163.5 288.875ZM185 472.5C185 479.404 179.404 485 172.5 485C165.596 485 160 479.404 160 472.5C160 465.596 165.596 460 172.5 460C179.404 460 185 465.596 185 472.5ZM181.875 472.5C181.875 477.678 177.678 481.875 172.5 481.875C167.322 481.875 163.125 477.678 163.125 472.5C163.125 467.322 167.322 463.125 172.5 463.125C177.678 463.125 181.875 467.322 181.875 472.5ZM140 324C148.284 324 155 317.284 155 309C155 300.716 148.284 294 140 294C131.716 294 125 300.716 125 309C125 317.284 131.716 324 140 324ZM140 320.25C146.213 320.25 151.25 315.213 151.25 309C151.25 302.787 146.213 297.75 140 297.75C133.787 297.75 128.75 302.787 128.75 309C128.75 315.213 133.787 320.25 140 320.25Z" fill="white"/>
<path fill-rule="evenodd" clip-rule="evenodd" d="M54 64C59.5228 64 64 59.5228 64 54C64 48.4772 59.5228 44 54 44C48.4772 44 44 48.4772 44 54C44 59.5228 48.4772 64 54 64ZM54 61.5C58.1421 61.5 61.5 58.1421 61.5 54C61.5 49.8579 58.1421 46.5 54 46.5C49.8579 46.5 46.5 49.8579 46.5 54C46.5 58.1421 49.8579 61.5 54 61.5ZM98.5 172C105.404 172 111 166.404 111 159.5C111 152.596 105.404 147 98.5 147C91.5964 147 86 152.596 86 159.5C86 166.404 91.5964 172 98.5 172ZM98.5 168.875C103.678 168.875 107.875 164.678 107.875 159.5C107.875 154.322 103.678 150.125 98.5 150.125C93.3223 150.125 89.125 154.322 89.125 159.5C89.125 164.678 93.3223 168.875 98.5 168.875ZM142 349C142 354.523 137.523 359 132 359C126.477 359 122 354.523 122 349C122 343.477 126.477 339 132 339C137.523 339 142 343.477 142 349ZM139.5 349C139.5 353.142 136.142 356.5 132 356.5C127.858 356.5 124.5 353.142 124.5 349C124.5 344.858 127.858 341.5 132 341.5C136.142 341.5 139.5 344.858 139.5 349ZM114.5 191C118.642 191 122 187.642 122 183.5C122 179.358 118.642 176 114.5 176C110.358 176 107 179.358 107 183.5C107 187.642 110.358 191 114.5 191ZM114.5 189.125C117.607 189.125 120.125 186.607 120.125 183.5C120.125 180.393 117.607 177.875 114.5 177.875C111.393 177.875 108.875 180.393 108.875 183.5C108.875 186.607 111.393 189.125 114.5 189.125ZM75 84.9497C75 89.0918 71.6421 92.4497 67.5 92.4497C63.3579 92.4497 60 89.0918 60 84.9497C60 80.8076 63.3579 77.4497 67.5 77.4497C71.6421 77.4497 75 80.8076 75 84.9497ZM73.125 84.9497C73.125 88.0563 70.6066 90.5747 67.5 90.5747C64.3934 90.5747 61.875 88.0563 61.875 84.9497C61.875 81.8431 64.3934 79.3247 67.5 79.3247C70.6066 79.3247 73.125 81.8431 73.125 84.9497ZM130 391C132.761 391 135 388.761 135 386C135 383.239 132.761 381 130 381C127.239 381 125 383.239 125 386C125 388.761 127.239 391 130 391ZM130 389.75C132.071 389.75 133.75 388.071 133.75 386C133.75 383.929 132.071 382.25 130 382.25C127.929 382.25 126.25 383.929 126.25 386C126.25 388.071 127.929 389.75 130 389.75ZM130 272.5C130 276.642 126.642 280 122.5 280C118.358 280 115 276.642 115 272.5C115 268.358 118.358 265 122.5 265C126.642 265 130 268.358 130 272.5ZM128.125 272.5C128.125 275.607 125.607 278.125 122.5 278.125C119.393 278.125 116.875 275.607 116.875 272.5C116.875 269.393 119.393 266.875 122.5 266.875C125.607 266.875 128.125 269.393 128.125 272.5Z" fill="white"/>
<path fill-rule="evenodd" clip-rule="evenodd" d="M107 122C107 124.761 104.761 127 102 127C99.2386 127 97 124.761 97 122C97 119.239 99.2386 117 102 117C104.761 117 107 119.239 107 122ZM105.75 122C105.75 124.071 104.071 125.75 102 125.75C99.9289 125.75 98.25 124.071 98.25 122C98.25 119.929 99.9289 118.25 102 118.25C104.071 118.25 105.75 119.929 105.75 122ZM57 471C57 476.523 52.5228 481 47 481C41.4772 481 37 476.523 37 471C37 465.477 41.4772 461 47 461C52.5228 461 57 465.477 57 471ZM54.5 471C54.5 475.142 51.1421 478.5 47 478.5C42.8579 478.5 39.5 475.142 39.5 471C39.5 466.858 42.8579 463.5 47 463.5C51.1421 463.5 54.5 466.858 54.5 471ZM95 332C100.523 332 105 327.523 105 322C105 316.477 100.523 312 95 312C89.4771 312 85 316.477 85 322C85 327.523 89.4771 332 95 332ZM95 329.5C99.1421 329.5 102.5 326.142 102.5 322C102.5 317.858 99.1421 314.5 95 314.5C90.8579 314.5 87.5 317.858 87.5 322C87.5 326.142 90.8579 329.5 95 329.5ZM120 489C120 494.523 115.523 499 110 499C104.477 499 100 494.523 100 489C100 483.477 104.477 479 110 479C115.523 479 120 483.477 120 489ZM117.5 489C117.5 493.142 114.142 496.5 110 496.5C105.858 496.5 102.5 493.142 102.5 489C102.5 484.858 105.858 481.5 110 481.5C114.142 481.5 117.5 484.858 117.5 489ZM170 327C175.523 327 180 322.523 180 317C180 311.477 175.523 307 170 307C164.477 307 160 311.477 160 317C160 322.523 164.477 327 170 327ZM170 324.5C174.142 324.5 177.5 321.142 177.5 317C177.5 312.858 174.142 309.5 170 309.5C165.858 309.5 162.5 312.858 162.5 317C162.5 321.142 165.858 324.5 170 324.5ZM107 444C107 452.284 100.284 459 92 459C83.7157 459 77 452.284 77 444C77 435.716 83.7157 429 92 429C100.284 429 107 435.716 107 444ZM103.25 444C103.25 450.213 98.2132 455.25 92 455.25C85.7868 455.25 80.75 450.213 80.75 444C80.75 437.787 85.7868 432.75 92 432.75C98.2132 432.75 103.25 437.787 103.25 444ZM132.5 460C136.642 460 140 456.642 140 452.5C140 448.358 136.642 445 132.5 445C128.358 445 125 448.358 125 452.5C125 456.642 128.358 460 132.5 460ZM132.5 458.125C135.607 458.125 138.125 455.607 138.125 452.5C138.125 449.393 135.607 446.875 132.5 446.875C129.393 446.875 126.875 449.393 126.875 452.5C126.875 455.607 129.393 458.125 132.5 458.125ZM197 416.5C197 423.404 191.404 429 184.5 429C177.596 429 172 423.404 172 416.5C172 409.596 177.596 404 184.5 404C191.404 404 197 409.596 197 416.5ZM193.875 416.5C193.875 421.678 189.678 425.875 184.5 425.875C179.322 425.875 175.125 421.678 175.125 416.5C175.125 411.322 179.322 407.125 184.5 407.125C189.678 407.125 193.875 411.322 193.875 416.5Z" fill="white"/>
</svg>
