<svg width="240" height="503" viewBox="0 0 240 503" fill="none" xmlns="http://www.w3.org/2000/svg">
<g clip-path="url(#clip0)">
<path fill-rule="evenodd" clip-rule="evenodd" d="M170 99.5C170 109.165 162.165 117 152.5 117C142.835 117 135 109.165 135 99.5C135 89.835 142.835 82 152.5 82C162.165 82 170 89.835 170 99.5ZM165.625 99.5C165.625 106.749 159.749 112.625 152.5 112.625C145.251 112.625 139.375 106.749 139.375 99.5C139.375 92.2513 145.251 86.375 152.5 86.375C159.749 86.375 165.625 92.2513 165.625 99.5ZM79 168C79 173.523 74.5229 178 69 178C63.4772 178 59 173.523 59 168C59 162.477 63.4772 158 69 158C74.5229 158 79 162.477 79 168ZM76.5 168C76.5 172.142 73.1421 175.5 69 175.5C64.8579 175.5 61.5 172.142 61.5 168C61.5 163.858 64.8579 160.5 69 160.5C73.1421 160.5 76.5 163.858 76.5 168ZM172 223C174.761 223 177 220.761 177 218C177 215.239 174.761 213 172 213C169.239 213 167 215.239 167 218C167 220.761 169.239 223 172 223ZM172 221.75C174.071 221.75 175.75 220.071 175.75 218C175.75 215.929 174.071 214.25 172 214.25C169.929 214.25 168.25 215.929 168.25 218C168.25 220.071 169.929 221.75 172 221.75ZM160.5 281C167.404 281 173 275.404 173 268.5C173 261.596 167.404 256 160.5 256C153.596 256 148 261.596 148 268.5C148 275.404 153.596 281 160.5 281ZM160.5 277.875C165.678 277.875 169.875 273.678 169.875 268.5C169.875 263.322 165.678 259.125 160.5 259.125C155.322 259.125 151.125 263.322 151.125 268.5C151.125 273.678 155.322 277.875 160.5 277.875ZM87 200C89.7614 200 92 197.761 92 195C92 192.239 89.7614 190 87 190C84.2386 190 82 192.239 82 195C82 197.761 84.2386 200 87 200ZM87 198.75C89.0711 198.75 90.75 197.071 90.75 195C90.75 192.929 89.0711 191.25 87 191.25C84.9289 191.25 83.25 192.929 83.25 195C83.25 197.071 84.9289 198.75 87 198.75ZM177 457C177 462.523 172.523 467 167 467C161.477 467 157 462.523 157 457C157 451.477 161.477 447 167 447C172.523 447 177 451.477 177 457ZM174.5 457C174.5 461.142 171.142 464.5 167 464.5C162.858 464.5 159.5 461.142 159.5 457C159.5 452.858 162.858 449.5 167 449.5C171.142 449.5 174.5 452.858 174.5 457ZM137 314C145.284 314 152 307.284 152 299C152 290.716 145.284 284 137 284C128.716 284 122 290.716 122 299C122 307.284 128.716 314 137 314ZM137 310.25C143.213 310.25 148.25 305.213 148.25 299C148.25 292.787 143.213 287.75 137 287.75C130.787 287.75 125.75 292.787 125.75 299C125.75 305.213 130.787 310.25 137 310.25ZM94.5 157C101.404 157 107 151.404 107 144.5C107 137.596 101.404 132 94.5 132C87.5964 132 82 137.596 82 144.5C82 151.404 87.5964 157 94.5 157ZM94.5 153.875C99.6777 153.875 103.875 149.678 103.875 144.5C103.875 139.322 99.6777 135.125 94.5 135.125C89.3223 135.125 85.125 139.322 85.125 144.5C85.125 149.678 89.3223 153.875 94.5 153.875ZM69 105.5C69 109.642 65.6421 113 61.5 113C57.3579 113 54 109.642 54 105.5C54 101.358 57.3579 98 61.5 98C65.6421 98 69 101.358 69 105.5ZM67.125 105.5C67.125 108.607 64.6066 111.125 61.5 111.125C58.3934 111.125 55.875 108.607 55.875 105.5C55.875 102.393 58.3934 99.875 61.5 99.875C64.6066 99.875 67.125 102.393 67.125 105.5Z" fill="white"/>
<path fill-rule="evenodd" clip-rule="evenodd" d="M99 117C101.761 117 104 114.761 104 112C104 109.239 101.761 107 99 107C96.2386 107 94 109.239 94 112C94 114.761 96.2386 117 99 117ZM99 115.75C101.071 115.75 102.75 114.071 102.75 112C102.75 109.929 101.071 108.25 99 108.25C96.9289 108.25 95.25 109.929 95.25 112C95.25 114.071 96.9289 115.75 99 115.75ZM119 169.5C119 173.642 115.642 177 111.5 177C107.358 177 104 173.642 104 169.5C104 165.358 107.358 162 111.5 162C115.642 162 119 165.358 119 169.5ZM117.125 169.5C117.125 172.607 114.607 175.125 111.5 175.125C108.393 175.125 105.875 172.607 105.875 169.5C105.875 166.393 108.393 163.875 111.5 163.875C114.607 163.875 117.125 166.393 117.125 169.5ZM139 335C139 340.523 134.523 345 129 345C123.477 345 119 340.523 119 335C119 329.477 123.477 325 129 325C134.523 325 139 329.477 139 335ZM136.5 335C136.5 339.142 133.142 342.5 129 342.5C124.858 342.5 121.5 339.142 121.5 335C121.5 330.858 124.858 327.5 129 327.5C133.142 327.5 136.5 330.858 136.5 335ZM127 377C129.761 377 132 374.761 132 372C132 369.239 129.761 367 127 367C124.239 367 122 369.239 122 372C122 374.761 124.239 377 127 377ZM127 375.75C129.071 375.75 130.75 374.071 130.75 372C130.75 369.929 129.071 368.25 127 368.25C124.929 368.25 123.25 369.929 123.25 372C123.25 374.071 124.929 375.75 127 375.75ZM127 262.5C127 266.642 123.642 270 119.5 270C115.358 270 112 266.642 112 262.5C112 258.358 115.358 255 119.5 255C123.642 255 127 258.358 127 262.5ZM125.125 262.5C125.125 265.607 122.607 268.125 119.5 268.125C116.393 268.125 113.875 265.607 113.875 262.5C113.875 259.393 116.393 256.875 119.5 256.875C122.607 256.875 125.125 259.393 125.125 262.5ZM54 461C54 466.523 49.5228 471 44 471C38.4772 471 34 466.523 34 461C34 455.477 38.4772 451 44 451C49.5228 451 54 455.477 54 461ZM51.5 461C51.5 465.142 48.1421 468.5 44 468.5C39.8579 468.5 36.5 465.142 36.5 461C36.5 456.858 39.8579 453.5 44 453.5C48.1421 453.5 51.5 456.858 51.5 461ZM92 322C97.5229 322 102 317.523 102 312C102 306.477 97.5229 302 92 302C86.4771 302 82 306.477 82 312C82 317.523 86.4771 322 92 322ZM92 319.5C96.1421 319.5 99.5 316.142 99.5 312C99.5 307.858 96.1421 304.5 92 304.5C87.8579 304.5 84.5 307.858 84.5 312C84.5 316.142 87.8579 319.5 92 319.5ZM177 307C177 312.523 172.523 317 167 317C161.477 317 157 312.523 157 307C157 301.477 161.477 297 167 297C172.523 297 177 301.477 177 307ZM174.5 307C174.5 311.142 171.142 314.5 167 314.5C162.858 314.5 159.5 311.142 159.5 307C159.5 302.858 162.858 299.5 167 299.5C171.142 299.5 174.5 302.858 174.5 307ZM89 448C97.2843 448 104 441.284 104 433C104 424.716 97.2843 418 89 418C80.7157 418 74 424.716 74 433C74 441.284 80.7157 448 89 448ZM89 444.25C95.2132 444.25 100.25 439.213 100.25 433C100.25 426.787 95.2132 421.75 89 421.75C82.7868 421.75 77.75 426.787 77.75 433C77.75 439.213 82.7868 444.25 89 444.25ZM137 442.5C137 446.642 133.642 450 129.5 450C125.358 450 122 446.642 122 442.5C122 438.358 125.358 435 129.5 435C133.642 435 137 438.358 137 442.5ZM135.125 442.5C135.125 445.607 132.607 448.125 129.5 448.125C126.393 448.125 123.875 445.607 123.875 442.5C123.875 439.393 126.393 436.875 129.5 436.875C132.607 436.875 135.125 439.393 135.125 442.5ZM181.5 419C188.404 419 194 413.404 194 406.5C194 399.596 188.404 394 181.5 394C174.596 394 169 399.596 169 406.5C169 413.404 174.596 419 181.5 419ZM181.5 415.875C186.678 415.875 190.875 411.678 190.875 406.5C190.875 401.322 186.678 397.125 181.5 397.125C176.322 397.125 172.125 401.322 172.125 406.5C172.125 411.678 176.322 415.875 181.5 415.875ZM79 478.413C79 483.936 74.5229 488.413 69 488.413C63.4772 488.413 59 483.936 59 478.413C59 472.89 63.4772 468.413 69 468.413C74.5229 468.413 79 472.89 79 478.413ZM76.5 478.413C76.5 482.555 73.1421 485.913 69 485.913C64.8579 485.913 61.5 482.555 61.5 478.413C61.5 474.271 64.8579 470.913 69 470.913C73.1421 470.913 76.5 474.271 76.5 478.413Z" fill="white"/>
<path fill-rule="evenodd" clip-rule="evenodd" d="M153.196 468C153.196 476.284 146.48 483 138.196 483C129.912 483 123.196 476.284 123.196 468C123.196 459.716 129.912 453 138.196 453C146.48 453 153.196 459.716 153.196 468ZM149.446 468C149.446 474.213 144.409 479.25 138.196 479.25C131.983 479.25 126.946 474.213 126.946 468C126.946 461.787 131.983 456.75 138.196 456.75C144.409 456.75 149.446 461.787 149.446 468ZM111.529 480.555C111.529 484.067 108.435 486.914 104.618 486.914C100.8 486.914 97.7059 484.067 97.7059 480.555C97.7059 477.043 100.8 474.196 104.618 474.196C108.435 474.196 111.529 477.043 111.529 480.555ZM109.801 480.555C109.801 483.189 107.481 485.324 104.618 485.324C101.755 485.324 99.4338 483.189 99.4338 480.555C99.4338 477.921 101.755 475.786 104.618 475.786C107.481 475.786 109.801 477.921 109.801 480.555ZM118.902 539.48C118.902 544.163 114.776 547.959 109.686 547.959C104.597 547.959 100.471 544.163 100.471 539.48C100.471 534.798 104.597 531.002 109.686 531.002C114.776 531.002 118.902 534.798 118.902 539.48ZM116.598 539.48C116.598 542.992 113.504 545.839 109.686 545.839C105.869 545.839 102.774 542.992 102.774 539.48C102.774 535.969 105.869 533.122 109.686 533.122C113.504 533.122 116.598 535.969 116.598 539.48ZM188.48 597.601C194.843 597.601 200 592.856 200 587.003C200 581.149 194.843 576.405 188.48 576.405C182.118 576.405 176.961 581.149 176.961 587.003C176.961 592.856 182.118 597.601 188.48 597.601ZM188.48 594.951C193.252 594.951 197.12 591.393 197.12 587.003C197.12 582.613 193.252 579.054 188.48 579.054C183.709 579.054 179.841 582.613 179.841 587.003C179.841 591.393 183.709 594.951 188.48 594.951ZM143.324 637.45C149.686 637.45 154.843 632.705 154.843 626.852C154.843 620.998 149.686 616.253 143.324 616.253C136.961 616.253 131.804 620.998 131.804 626.852C131.804 632.705 136.961 637.45 143.324 637.45ZM143.324 634.8C148.095 634.8 151.963 631.241 151.963 626.852C151.963 622.462 148.095 618.903 143.324 618.903C138.552 618.903 134.684 622.462 134.684 626.852C134.684 631.241 138.552 634.8 143.324 634.8ZM118.441 568.307C122.258 568.307 125.353 565.46 125.353 561.948C125.353 558.437 122.258 555.59 118.441 555.59C114.624 555.59 111.529 558.437 111.529 561.948C111.529 565.46 114.624 568.307 118.441 568.307ZM118.441 566.718C121.304 566.718 123.625 564.582 123.625 561.948C123.625 559.315 121.304 557.179 118.441 557.179C115.578 557.179 113.257 559.315 113.257 561.948C113.257 564.582 115.578 566.718 118.441 566.718ZM152.539 610.319C156.356 610.319 159.451 607.472 159.451 603.96C159.451 600.448 156.356 597.601 152.539 597.601C148.722 597.601 145.627 600.448 145.627 603.96C145.627 607.472 148.722 610.319 152.539 610.319ZM152.539 608.729C155.402 608.729 157.723 606.594 157.723 603.96C157.723 601.326 155.402 599.191 152.539 599.191C149.676 599.191 147.355 601.326 147.355 603.96C147.355 606.594 149.676 608.729 152.539 608.729ZM95.8628 522.524C95.8628 527.206 91.7368 531.002 86.6471 531.002C81.5574 531.002 77.4314 527.206 77.4314 522.524C77.4314 517.841 81.5574 514.045 86.6471 514.045C91.7368 514.045 95.8628 517.841 95.8628 522.524ZM93.5588 522.524C93.5588 526.036 90.4643 528.883 86.6471 528.883C82.8298 528.883 79.7353 526.036 79.7353 522.524C79.7353 519.012 82.8298 516.165 86.6471 516.165C90.4643 516.165 93.5588 519.012 93.5588 522.524ZM136.412 539.099C141.501 539.099 145.627 535.303 145.627 530.621C145.627 525.938 141.501 522.142 136.412 522.142C131.322 522.142 127.196 525.938 127.196 530.621C127.196 535.303 131.322 539.099 136.412 539.099ZM136.412 536.979C140.229 536.979 143.323 534.132 143.323 530.621C143.323 527.109 140.229 524.262 136.412 524.262C132.594 524.262 129.5 527.109 129.5 530.621C129.5 534.132 132.594 536.979 136.412 536.979Z" fill="white"/>
</g>
<defs>
<clipPath id="clip0">
<rect width="240" height="503" fill="white"/>
</clipPath>
</defs>
</svg>
