<svg width="240" height="503" viewBox="0 0 240 503" fill="none" xmlns="http://www.w3.org/2000/svg">
<g clip-path="url(#clip0)">
<path fill-rule="evenodd" clip-rule="evenodd" d="M168 85.5C168 95.165 160.165 103 150.5 103C140.835 103 133 95.165 133 85.5C133 75.835 140.835 68 150.5 68C160.165 68 168 75.835 168 85.5ZM163.625 85.5C163.625 92.7487 157.749 98.625 150.5 98.625C143.251 98.625 137.375 92.7487 137.375 85.5C137.375 78.2513 143.251 72.375 150.5 72.375C157.749 72.375 163.625 78.2513 163.625 85.5ZM58.5 113C68.165 113 76 105.165 76 95.5C76 85.835 68.165 78 58.5 78C48.835 78 41 85.835 41 95.5C41 105.165 48.835 113 58.5 113ZM58.5 108.625C65.7487 108.625 71.625 102.749 71.625 95.5C71.625 88.2513 65.7487 82.375 58.5 82.375C51.2513 82.375 45.375 88.2513 45.375 95.5C45.375 102.749 51.2513 108.625 58.5 108.625ZM79 157C79 162.523 74.5229 167 69 167C63.4772 167 59 162.523 59 157C59 151.477 63.4772 147 69 147C74.5229 147 79 151.477 79 157ZM76.5 157C76.5 161.142 73.1421 164.5 69 164.5C64.8579 164.5 61.5 161.142 61.5 157C61.5 152.858 64.8579 149.5 69 149.5C73.1421 149.5 76.5 152.858 76.5 157ZM173 255.5C173 262.404 167.404 268 160.5 268C153.596 268 148 262.404 148 255.5C148 248.596 153.596 243 160.5 243C167.404 243 173 248.596 173 255.5ZM169.875 255.5C169.875 260.678 165.678 264.875 160.5 264.875C155.322 264.875 151.125 260.678 151.125 255.5C151.125 250.322 155.322 246.125 160.5 246.125C165.678 246.125 169.875 250.322 169.875 255.5ZM167 459C172.523 459 177 454.523 177 449C177 443.477 172.523 439 167 439C161.477 439 157 443.477 157 449C157 454.523 161.477 459 167 459ZM167 456.5C171.142 456.5 174.5 453.142 174.5 449C174.5 444.858 171.142 441.5 167 441.5C162.858 441.5 159.5 444.858 159.5 449C159.5 453.142 162.858 456.5 167 456.5ZM151 285.5C151 295.165 143.165 303 133.5 303C123.835 303 116 295.165 116 285.5C116 275.835 123.835 268 133.5 268C143.165 268 151 275.835 151 285.5ZM146.625 285.5C146.625 292.749 140.749 298.625 133.5 298.625C126.251 298.625 120.375 292.749 120.375 285.5C120.375 278.251 126.251 272.375 133.5 272.375C140.749 272.375 146.625 278.251 146.625 285.5ZM92.5 144C99.4036 144 105 138.404 105 131.5C105 124.596 99.4036 119 92.5 119C85.5964 119 80 124.596 80 131.5C80 138.404 85.5964 144 92.5 144ZM92.5 140.875C97.6777 140.875 101.875 136.678 101.875 131.5C101.875 126.322 97.6777 122.125 92.5 122.125C87.3223 122.125 83.125 126.322 83.125 131.5C83.125 136.678 87.3223 140.875 92.5 140.875ZM137 323C137 328.523 132.523 333 127 333C121.477 333 117 328.523 117 323C117 317.477 121.477 313 127 313C132.523 313 137 317.477 137 323ZM134.5 323C134.5 327.142 131.142 330.5 127 330.5C122.858 330.5 119.5 327.142 119.5 323C119.5 318.858 122.858 315.5 127 315.5C131.142 315.5 134.5 318.858 134.5 323Z" fill="white"/>
<path fill-rule="evenodd" clip-rule="evenodd" d="M104 101C104 103.761 101.761 106 99 106C96.2386 106 94 103.761 94 101C94 98.2386 96.2386 96 99 96C101.761 96 104 98.2386 104 101ZM102.75 101C102.75 103.071 101.071 104.75 99 104.75C96.9289 104.75 95.25 103.071 95.25 101C95.25 98.9289 96.9289 97.25 99 97.25C101.071 97.25 102.75 98.9289 102.75 101ZM117 157.5C117 161.642 113.642 165 109.5 165C105.358 165 102 161.642 102 157.5C102 153.358 105.358 150 109.5 150C113.642 150 117 153.358 117 157.5ZM115.125 157.5C115.125 160.607 112.607 163.125 109.5 163.125C106.393 163.125 103.875 160.607 103.875 157.5C103.875 154.393 106.393 151.875 109.5 151.875C112.607 151.875 115.125 154.393 115.125 157.5ZM132 361C132 363.761 129.761 366 127 366C124.239 366 122 363.761 122 361C122 358.239 124.239 356 127 356C129.761 356 132 358.239 132 361ZM130.75 361C130.75 363.071 129.071 364.75 127 364.75C124.929 364.75 123.25 363.071 123.25 361C123.25 358.929 124.929 357.25 127 357.25C129.071 357.25 130.75 358.929 130.75 361ZM119.5 259C123.642 259 127 255.642 127 251.5C127 247.358 123.642 244 119.5 244C115.358 244 112 247.358 112 251.5C112 255.642 115.358 259 119.5 259ZM119.5 257.125C122.607 257.125 125.125 254.607 125.125 251.5C125.125 248.393 122.607 245.875 119.5 245.875C116.393 245.875 113.875 248.393 113.875 251.5C113.875 254.607 116.393 257.125 119.5 257.125ZM89.5 306C93.6421 306 97 302.642 97 298.5C97 294.358 93.6421 291 89.5 291C85.3579 291 82 294.358 82 298.5C82 302.642 85.3579 306 89.5 306ZM89.5 304.125C92.6066 304.125 95.125 301.607 95.125 298.5C95.125 295.393 92.6066 292.875 89.5 292.875C86.3934 292.875 83.875 295.393 83.875 298.5C83.875 301.607 86.3934 304.125 89.5 304.125ZM177 296C177 301.523 172.523 306 167 306C161.477 306 157 301.523 157 296C157 290.477 161.477 286 167 286C172.523 286 177 290.477 177 296ZM174.5 296C174.5 300.142 171.142 303.5 167 303.5C162.858 303.5 159.5 300.142 159.5 296C159.5 291.858 162.858 288.5 167 288.5C171.142 288.5 174.5 291.858 174.5 296ZM88 435C96.2843 435 103 428.284 103 420C103 411.716 96.2843 405 88 405C79.7157 405 73 411.716 73 420C73 428.284 79.7157 435 88 435ZM88 431.25C94.2132 431.25 99.25 426.213 99.25 420C99.25 413.787 94.2132 408.75 88 408.75C81.7868 408.75 76.75 413.787 76.75 420C76.75 426.213 81.7868 431.25 88 431.25ZM137 431.5C137 435.642 133.642 439 129.5 439C125.358 439 122 435.642 122 431.5C122 427.358 125.358 424 129.5 424C133.642 424 137 427.358 137 431.5ZM135.125 431.5C135.125 434.607 132.607 437.125 129.5 437.125C126.393 437.125 123.875 434.607 123.875 431.5C123.875 428.393 126.393 425.875 129.5 425.875C132.607 425.875 135.125 428.393 135.125 431.5ZM177.5 406C184.404 406 190 400.404 190 393.5C190 386.596 184.404 381 177.5 381C170.596 381 165 386.596 165 393.5C165 400.404 170.596 406 177.5 406ZM177.5 402.875C182.678 402.875 186.875 398.678 186.875 393.5C186.875 388.322 182.678 384.125 177.5 384.125C172.322 384.125 168.125 388.322 168.125 393.5C168.125 398.678 172.322 402.875 177.5 402.875ZM114.902 486.447C114.902 492.3 109.744 497.045 103.382 497.045C97.0202 497.045 91.8627 492.3 91.8627 486.447C91.8627 480.594 97.0202 475.849 103.382 475.849C109.744 475.849 114.902 480.594 114.902 486.447ZM112.022 486.447C112.022 490.837 108.154 494.396 103.382 494.396C98.6107 494.396 94.7426 490.837 94.7426 486.447C94.7426 482.057 98.6107 478.498 103.382 478.498C108.154 478.498 112.022 482.057 112.022 486.447Z" fill="white"/>
<path fill-rule="evenodd" clip-rule="evenodd" d="M155.451 454.837C155.451 463.032 148.23 469.675 139.324 469.675C130.417 469.675 123.196 463.032 123.196 454.837C123.196 446.643 130.417 440 139.324 440C148.23 440 155.451 446.643 155.451 454.837ZM151.419 454.837C151.419 460.983 146.004 465.965 139.323 465.965C132.643 465.965 127.228 460.983 127.228 454.837C127.228 448.692 132.643 443.709 139.323 443.709C146.004 443.709 151.419 448.692 151.419 454.837ZM100.618 466.914C104.435 466.914 107.529 464.067 107.529 460.555C107.529 457.043 104.435 454.196 100.618 454.196C96.8004 454.196 93.7059 457.043 93.7059 460.555C93.7059 464.067 96.8004 466.914 100.618 466.914ZM100.618 465.324C103.481 465.324 105.801 463.189 105.801 460.555C105.801 457.921 103.481 455.786 100.618 455.786C97.7547 455.786 95.4338 457.921 95.4338 460.555C95.4338 463.189 97.7547 465.324 100.618 465.324ZM105.686 527.959C110.776 527.959 114.902 524.163 114.902 519.48C114.902 514.798 110.776 511.002 105.686 511.002C100.597 511.002 96.4706 514.798 96.4706 519.48C96.4706 524.163 100.597 527.959 105.686 527.959ZM105.686 525.839C109.504 525.839 112.598 522.992 112.598 519.48C112.598 515.969 109.504 513.122 105.686 513.122C101.869 513.122 98.7745 515.969 98.7745 519.48C98.7745 522.992 101.869 525.839 105.686 525.839ZM196 570.003C196 575.856 190.843 580.601 184.48 580.601C178.118 580.601 172.961 575.856 172.961 570.003C172.961 564.149 178.118 559.405 184.48 559.405C190.843 559.405 196 564.149 196 570.003ZM193.12 570.003C193.12 574.393 189.252 577.951 184.48 577.951C179.709 577.951 175.841 574.393 175.841 570.003C175.841 565.613 179.709 562.054 184.48 562.054C189.252 562.054 193.12 565.613 193.12 570.003ZM150.843 606.852C150.843 612.705 145.686 617.45 139.324 617.45C132.961 617.45 127.804 612.705 127.804 606.852C127.804 600.998 132.961 596.253 139.324 596.253C145.686 596.253 150.843 600.998 150.843 606.852ZM147.963 606.852C147.963 611.241 144.095 614.8 139.324 614.8C134.552 614.8 130.684 611.241 130.684 606.852C130.684 602.462 134.552 598.903 139.324 598.903C144.095 598.903 147.963 602.462 147.963 606.852ZM121.353 541.948C121.353 545.46 118.258 548.307 114.441 548.307C110.624 548.307 107.529 545.46 107.529 541.948C107.529 538.437 110.624 535.59 114.441 535.59C118.258 535.59 121.353 538.437 121.353 541.948ZM119.625 541.948C119.625 544.582 117.304 546.718 114.441 546.718C111.578 546.718 109.257 544.582 109.257 541.948C109.257 539.315 111.578 537.179 114.441 537.179C117.304 537.179 119.625 539.315 119.625 541.948ZM155.451 586.96C155.451 590.472 152.356 593.319 148.539 593.319C144.722 593.319 141.627 590.472 141.627 586.96C141.627 583.448 144.722 580.601 148.539 580.601C152.356 580.601 155.451 583.448 155.451 586.96ZM153.723 586.96C153.723 589.594 151.402 591.729 148.539 591.729C145.676 591.729 143.355 589.594 143.355 586.96C143.355 584.326 145.676 582.191 148.539 582.191C151.402 582.191 153.723 584.326 153.723 586.96ZM132.412 522.099C137.501 522.099 141.627 518.303 141.627 513.621C141.627 508.938 137.501 505.142 132.412 505.142C127.322 505.142 123.196 508.938 123.196 513.621C123.196 518.303 127.322 522.099 132.412 522.099ZM132.412 519.98C136.229 519.98 139.323 517.133 139.323 513.621C139.323 510.109 136.229 507.262 132.412 507.262C128.594 507.262 125.5 510.109 125.5 513.621C125.5 517.133 128.594 519.98 132.412 519.98Z" fill="white"/>
</g>
<defs>
<clipPath id="clip0">
<rect width="240" height="503" fill="white"/>
</clipPath>
</defs>
</svg>
