<svg width="240" height="503" viewBox="0 0 240 503" fill="none" xmlns="http://www.w3.org/2000/svg">
<path fill-rule="evenodd" clip-rule="evenodd" d="M43 81.4497C51.2843 81.4497 58 74.734 58 66.4497C58 58.1655 51.2843 51.4497 43 51.4497C34.7157 51.4497 28 58.1655 28 66.4497C28 74.734 34.7157 81.4497 43 81.4497ZM43 77.6997C49.2132 77.6997 54.25 72.6629 54.25 66.4497C54.25 60.2365 49.2132 55.1997 43 55.1997C36.7868 55.1997 31.75 60.2365 31.75 66.4497C31.75 72.6629 36.7868 77.6997 43 77.6997ZM177 373C185.284 373 192 366.284 192 358C192 349.716 185.284 343 177 343C168.716 343 162 349.716 162 358C162 366.284 168.716 373 177 373ZM177 369.25C183.213 369.25 188.25 364.213 188.25 358C188.25 351.787 183.213 346.75 177 346.75C170.787 346.75 165.75 351.787 165.75 358C165.75 364.213 170.787 369.25 177 369.25ZM103 262C103 270.284 96.2843 277 88 277C79.7157 277 73 270.284 73 262C73 253.716 79.7157 247 88 247C96.2843 247 103 253.716 103 262ZM99.25 262C99.25 268.213 94.2132 273.25 88 273.25C81.7868 273.25 76.75 268.213 76.75 262C76.75 255.787 81.7868 250.75 88 250.75C94.2132 250.75 99.25 255.787 99.25 262ZM78 199C80.7614 199 83 196.761 83 194C83 191.239 80.7614 189 78 189C75.2386 189 73 191.239 73 194C73 196.761 75.2386 199 78 199ZM78 197.75C80.0711 197.75 81.75 196.071 81.75 194C81.75 191.929 80.0711 190.25 78 190.25C75.9289 190.25 74.25 191.929 74.25 194C74.25 196.071 75.9289 197.75 78 197.75ZM93 93.9497C93 100.853 87.4036 106.45 80.5 106.45C73.5964 106.45 68 100.853 68 93.9497C68 87.0462 73.5964 81.4497 80.5 81.4497C87.4036 81.4497 93 87.0462 93 93.9497ZM89.875 93.9497C89.875 99.1274 85.6777 103.325 80.5 103.325C75.3223 103.325 71.125 99.1274 71.125 93.9497C71.125 88.7721 75.3223 84.5747 80.5 84.5747C85.6777 84.5747 89.875 88.7721 89.875 93.9497ZM145.5 412C152.404 412 158 406.404 158 399.5C158 392.596 152.404 387 145.5 387C138.596 387 133 392.596 133 399.5C133 406.404 138.596 412 145.5 412ZM145.5 408.875C150.678 408.875 154.875 404.678 154.875 399.5C154.875 394.322 150.678 390.125 145.5 390.125C140.322 390.125 136.125 394.322 136.125 399.5C136.125 404.678 140.322 408.875 145.5 408.875ZM181 192.5C181 199.404 175.404 205 168.5 205C161.596 205 156 199.404 156 192.5C156 185.596 161.596 180 168.5 180C175.404 180 181 185.596 181 192.5ZM177.875 192.5C177.875 197.678 173.678 201.875 168.5 201.875C163.322 201.875 159.125 197.678 159.125 192.5C159.125 187.322 163.322 183.125 168.5 183.125C173.678 183.125 177.875 187.322 177.875 192.5Z" fill="white"/>
<path fill-rule="evenodd" clip-rule="evenodd" d="M77.5 74.4497C81.6421 74.4497 85 71.0919 85 66.9497C85 62.8076 81.6421 59.4497 77.5 59.4497C73.3579 59.4497 70 62.8076 70 66.9497C70 71.0919 73.3579 74.4497 77.5 74.4497ZM77.5 72.5747C80.6066 72.5747 83.125 70.0563 83.125 66.9497C83.125 63.8431 80.6066 61.3247 77.5 61.3247C74.3934 61.3247 71.875 63.8431 71.875 66.9497C71.875 70.0563 74.3934 72.5747 77.5 72.5747ZM93 136.45C93 141.973 88.5229 146.45 83 146.45C77.4771 146.45 73 141.973 73 136.45C73 130.927 77.4771 126.45 83 126.45C88.5229 126.45 93 130.927 93 136.45ZM90.5 136.45C90.5 140.592 87.1421 143.95 83 143.95C78.8579 143.95 75.5 140.592 75.5 136.45C75.5 132.308 78.8579 128.95 83 128.95C87.1421 128.95 90.5 132.308 90.5 136.45ZM132 239.5C132 246.404 126.404 252 119.5 252C112.596 252 107 246.404 107 239.5C107 232.596 112.596 227 119.5 227C126.404 227 132 232.596 132 239.5ZM128.875 239.5C128.875 244.678 124.678 248.875 119.5 248.875C114.322 248.875 110.125 244.678 110.125 239.5C110.125 234.322 114.322 230.125 119.5 230.125C124.678 230.125 128.875 234.322 128.875 239.5ZM156 439C161.523 439 166 434.523 166 429C166 423.477 161.523 419 156 419C150.477 419 146 423.477 146 429C146 434.523 150.477 439 156 439ZM156 436.5C160.142 436.5 163.5 433.142 163.5 429C163.5 424.858 160.142 421.5 156 421.5C151.858 421.5 148.5 424.858 148.5 429C148.5 433.142 151.858 436.5 156 436.5ZM153 262C153 267.523 148.523 272 143 272C137.477 272 133 267.523 133 262C133 256.477 137.477 252 143 252C148.523 252 153 256.477 153 262ZM150.5 262C150.5 266.142 147.142 269.5 143 269.5C138.858 269.5 135.5 266.142 135.5 262C135.5 257.858 138.858 254.5 143 254.5C147.142 254.5 150.5 257.858 150.5 262ZM92.5 170.45C96.6421 170.45 100 167.092 100 162.95C100 158.808 96.6421 155.45 92.5 155.45C88.3579 155.45 85 158.808 85 162.95C85 167.092 88.3579 170.45 92.5 170.45ZM92.5 168.575C95.6066 168.575 98.125 166.056 98.125 162.95C98.125 159.843 95.6066 157.325 92.5 157.325C89.3934 157.325 86.875 159.843 86.875 162.95C86.875 166.056 89.3934 168.575 92.5 168.575ZM165 468.5C165 472.642 161.642 476 157.5 476C153.358 476 150 472.642 150 468.5C150 464.358 153.358 461 157.5 461C161.642 461 165 464.358 165 468.5ZM163.125 468.5C163.125 471.607 160.607 474.125 157.5 474.125C154.393 474.125 151.875 471.607 151.875 468.5C151.875 465.393 154.393 462.875 157.5 462.875C160.607 462.875 163.125 465.393 163.125 468.5ZM150 372.5C150 376.642 146.642 380 142.5 380C138.358 380 135 376.642 135 372.5C135 368.358 138.358 365 142.5 365C146.642 365 150 368.358 150 372.5ZM148.125 372.5C148.125 375.607 145.607 378.125 142.5 378.125C139.393 378.125 136.875 375.607 136.875 372.5C136.875 369.393 139.393 366.875 142.5 366.875C145.607 366.875 148.125 369.393 148.125 372.5Z" fill="white"/>
<path fill-rule="evenodd" clip-rule="evenodd" d="M137 51.9497C137 61.6147 129.165 69.4497 119.5 69.4497C109.835 69.4497 102 61.6147 102 51.9497C102 42.2848 109.835 34.4497 119.5 34.4497C129.165 34.4497 137 42.2848 137 51.9497ZM132.625 51.9497C132.625 59.1985 126.749 65.0747 119.5 65.0747C112.251 65.0747 106.375 59.1985 106.375 51.9497C106.375 44.701 112.251 38.8247 119.5 38.8247C126.749 38.8247 132.625 44.701 132.625 51.9497ZM68 116.45C68 121.973 63.5228 126.45 58 126.45C52.4772 126.45 48 121.973 48 116.45C48 110.927 52.4772 106.45 58 106.45C63.5228 106.45 68 110.927 68 116.45ZM65.5 116.45C65.5 120.592 62.1421 123.95 58 123.95C53.8579 123.95 50.5 120.592 50.5 116.45C50.5 112.308 53.8579 108.95 58 108.95C62.1421 108.95 65.5 112.308 65.5 116.45ZM137 212.5C137 216.642 133.642 220 129.5 220C125.358 220 122 216.642 122 212.5C122 208.358 125.358 205 129.5 205C133.642 205 137 208.358 137 212.5ZM135.125 212.5C135.125 215.607 132.607 218.125 129.5 218.125C126.393 218.125 123.875 215.607 123.875 212.5C123.875 209.393 126.393 206.875 129.5 206.875C132.607 206.875 135.125 209.393 135.125 212.5ZM123 432C128.523 432 133 427.523 133 422C133 416.477 128.523 412 123 412C117.477 412 113 416.477 113 422C113 427.523 117.477 432 123 432ZM123 429.5C127.142 429.5 130.5 426.142 130.5 422C130.5 417.858 127.142 414.5 123 414.5C118.858 414.5 115.5 417.858 115.5 422C115.5 426.142 118.858 429.5 123 429.5ZM122 126C122 131.523 117.523 136 112 136C106.477 136 102 131.523 102 126C102 120.477 106.477 116 112 116C117.523 116 122 120.477 122 126ZM119.5 126C119.5 130.142 116.142 133.5 112 133.5C107.858 133.5 104.5 130.142 104.5 126C104.5 121.858 107.858 118.5 112 118.5C116.142 118.5 119.5 121.858 119.5 126ZM192 400C197.523 400 202 395.523 202 390C202 384.477 197.523 380 192 380C186.477 380 182 384.477 182 390C182 395.523 186.477 400 192 400ZM192 397.5C196.142 397.5 199.5 394.142 199.5 390C199.5 385.858 196.142 382.5 192 382.5C187.858 382.5 184.5 385.858 184.5 390C184.5 394.142 187.858 397.5 192 397.5Z" fill="white"/>
</svg>
