<svg width="5000" height="5000" viewBox="0 0 5000 5000" fill="none" xmlns="http://www.w3.org/2000/svg">
<g clip-path="url(#clip0)">
<rect width="5000" height="5000" fill="white"/>
<path fill-rule="evenodd" clip-rule="evenodd" d="M625 597.5C729.934 597.5 815 512.434 815 407.5C815 302.566 729.934 217.5 625 217.5C520.066 217.5 435 302.566 435 407.5C435 512.434 520.066 597.5 625 597.5ZM625 597.5L538.397 1032.5H711.603L625 597.5ZM572 717.5C572 822.434 486.934 907.5 382 907.5C277.066 907.5 192 822.434 192 717.5C192 612.566 277.066 527.5 382 527.5C486.934 527.5 572 612.566 572 717.5ZM868 907.5C972.934 907.5 1058 822.434 1058 717.5C1058 612.566 972.934 527.5 868 527.5C763.066 527.5 678 612.566 678 717.5C678 822.434 763.066 907.5 868 907.5Z" fill="black"/>
<path fill-rule="evenodd" clip-rule="evenodd" d="M625 4420.5C729.934 4420.5 815 4335.43 815 4230.5C815 4125.57 729.934 4040.5 625 4040.5C520.066 4040.5 435 4125.57 435 4230.5C435 4335.43 520.066 4420.5 625 4420.5ZM625 4420.5L538.397 4855.5H711.603L625 4420.5ZM572 4540.5C572 4645.43 486.934 4730.5 382 4730.5C277.066 4730.5 192 4645.43 192 4540.5C192 4435.57 277.066 4350.5 382 4350.5C486.934 4350.5 572 4435.57 572 4540.5ZM868 4730.5C972.934 4730.5 1058 4645.43 1058 4540.5C1058 4435.57 972.934 4350.5 868 4350.5C763.066 4350.5 678 4435.57 678 4540.5C678 4645.43 763.066 4730.5 868 4730.5Z" fill="black"/>
<path fill-rule="evenodd" clip-rule="evenodd" d="M4375 4347.5C4479.93 4347.5 4565 4262.43 4565 4157.5C4565 4052.57 4479.93 3967.5 4375 3967.5C4270.07 3967.5 4185 4052.57 4185 4157.5C4185 4262.43 4270.07 4347.5 4375 4347.5ZM4375 4347.5L4288.4 4782.5H4461.6L4375 4347.5ZM4322 4467.5C4322 4572.43 4236.93 4657.5 4132 4657.5C4027.07 4657.5 3942 4572.43 3942 4467.5C3942 4362.57 4027.07 4277.5 4132 4277.5C4236.93 4277.5 4322 4362.57 4322 4467.5ZM4618 4657.5C4722.93 4657.5 4808 4572.43 4808 4467.5C4808 4362.57 4722.93 4277.5 4618 4277.5C4513.07 4277.5 4428 4362.57 4428 4467.5C4428 4572.43 4513.07 4657.5 4618 4657.5Z" fill="black"/>
<path fill-rule="evenodd" clip-rule="evenodd" d="M4375 3097.5C4479.93 3097.5 4565 3012.43 4565 2907.5C4565 2802.57 4479.93 2717.5 4375 2717.5C4270.07 2717.5 4185 2802.57 4185 2907.5C4185 3012.43 4270.07 3097.5 4375 3097.5ZM4375 3097.5L4288.4 3532.5H4461.6L4375 3097.5ZM4322 3217.5C4322 3322.43 4236.93 3407.5 4132 3407.5C4027.07 3407.5 3942 3322.43 3942 3217.5C3942 3112.57 4027.07 3027.5 4132 3027.5C4236.93 3027.5 4322 3112.57 4322 3217.5ZM4618 3407.5C4722.93 3407.5 4808 3322.43 4808 3217.5C4808 3112.57 4722.93 3027.5 4618 3027.5C4513.07 3027.5 4428 3112.57 4428 3217.5C4428 3322.43 4513.07 3407.5 4618 3407.5Z" fill="black"/>
<path fill-rule="evenodd" clip-rule="evenodd" d="M4375 1847.5C4479.93 1847.5 4565 1762.43 4565 1657.5C4565 1552.57 4479.93 1467.5 4375 1467.5C4270.07 1467.5 4185 1552.57 4185 1657.5C4185 1762.43 4270.07 1847.5 4375 1847.5ZM4375 1847.5L4288.4 2282.5H4461.6L4375 1847.5ZM4322 1967.5C4322 2072.43 4236.93 2157.5 4132 2157.5C4027.07 2157.5 3942 2072.43 3942 1967.5C3942 1862.57 4027.07 1777.5 4132 1777.5C4236.93 1777.5 4322 1862.57 4322 1967.5ZM4618 2157.5C4722.93 2157.5 4808 2072.43 4808 1967.5C4808 1862.57 4722.93 1777.5 4618 1777.5C4513.07 1777.5 4428 1862.57 4428 1967.5C4428 2072.43 4513.07 2157.5 4618 2157.5Z" fill="black"/>
<path fill-rule="evenodd" clip-rule="evenodd" d="M2500 1847.5C2604.93 1847.5 2690 1762.43 2690 1657.5C2690 1552.57 2604.93 1467.5 2500 1467.5C2395.07 1467.5 2310 1552.57 2310 1657.5C2310 1762.43 2395.07 1847.5 2500 1847.5ZM2500 1847.5L2413.4 2282.5H2586.6L2500 1847.5ZM2447 1967.5C2447 2072.43 2361.93 2157.5 2257 2157.5C2152.07 2157.5 2067 2072.43 2067 1967.5C2067 1862.57 2152.07 1777.5 2257 1777.5C2361.93 1777.5 2447 1862.57 2447 1967.5ZM2743 2157.5C2847.93 2157.5 2933 2072.43 2933 1967.5C2933 1862.57 2847.93 1777.5 2743 1777.5C2638.07 1777.5 2553 1862.57 2553 1967.5C2553 2072.43 2638.07 2157.5 2743 2157.5Z" fill="black"/>
<path fill-rule="evenodd" clip-rule="evenodd" d="M2500 3097.5C2604.93 3097.5 2690 3012.43 2690 2907.5C2690 2802.57 2604.93 2717.5 2500 2717.5C2395.07 2717.5 2310 2802.57 2310 2907.5C2310 3012.43 2395.07 3097.5 2500 3097.5ZM2500 3097.5L2413.4 3532.5H2586.6L2500 3097.5ZM2447 3217.5C2447 3322.43 2361.93 3407.5 2257 3407.5C2152.07 3407.5 2067 3322.43 2067 3217.5C2067 3112.57 2152.07 3027.5 2257 3027.5C2361.93 3027.5 2447 3112.57 2447 3217.5ZM2743 3407.5C2847.93 3407.5 2933 3322.43 2933 3217.5C2933 3112.57 2847.93 3027.5 2743 3027.5C2638.07 3027.5 2553 3112.57 2553 3217.5C2553 3322.43 2638.07 3407.5 2743 3407.5Z" fill="black"/>
<path fill-rule="evenodd" clip-rule="evenodd" d="M4375 597.5C4479.93 597.5 4565 512.434 4565 407.5C4565 302.566 4479.93 217.5 4375 217.5C4270.07 217.5 4185 302.566 4185 407.5C4185 512.434 4270.07 597.5 4375 597.5ZM4375 597.5L4288.4 1032.5H4461.6L4375 597.5ZM4322 717.5C4322 822.434 4236.93 907.5 4132 907.5C4027.07 907.5 3942 822.434 3942 717.5C3942 612.566 4027.07 527.5 4132 527.5C4236.93 527.5 4322 612.566 4322 717.5ZM4618 907.5C4722.93 907.5 4808 822.434 4808 717.5C4808 612.566 4722.93 527.5 4618 527.5C4513.07 527.5 4428 612.566 4428 717.5C4428 822.434 4513.07 907.5 4618 907.5Z" fill="black"/>
<path fill-rule="evenodd" clip-rule="evenodd" d="M625 1847.5C729.934 1847.5 815 1762.43 815 1657.5C815 1552.57 729.934 1467.5 625 1467.5C520.066 1467.5 435 1552.57 435 1657.5C435 1762.43 520.066 1847.5 625 1847.5ZM625 1847.5L538.397 2282.5H711.603L625 1847.5ZM572 1967.5C572 2072.43 486.934 2157.5 382 2157.5C277.066 2157.5 192 2072.43 192 1967.5C192 1862.57 277.066 1777.5 382 1777.5C486.934 1777.5 572 1862.57 572 1967.5ZM868 2157.5C972.934 2157.5 1058 2072.43 1058 1967.5C1058 1862.57 972.934 1777.5 868 1777.5C763.066 1777.5 678 1862.57 678 1967.5C678 2072.43 763.066 2157.5 868 2157.5Z" fill="black"/>
<path fill-rule="evenodd" clip-rule="evenodd" d="M625 3097.5C729.934 3097.5 815 3012.43 815 2907.5C815 2802.57 729.934 2717.5 625 2717.5C520.066 2717.5 435 2802.57 435 2907.5C435 3012.43 520.066 3097.5 625 3097.5ZM625 3097.5L538.397 3532.5H711.603L625 3097.5ZM572 3217.5C572 3322.43 486.934 3407.5 382 3407.5C277.066 3407.5 192 3322.43 192 3217.5C192 3112.57 277.066 3027.5 382 3027.5C486.934 3027.5 572 3112.57 572 3217.5ZM868 3407.5C972.934 3407.5 1058 3322.43 1058 3217.5C1058 3112.57 972.934 3027.5 868 3027.5C763.066 3027.5 678 3112.57 678 3217.5C678 3322.43 763.066 3407.5 868 3407.5Z" fill="black"/>
</g>
<defs>
<clipPath id="clip0">
<rect width="5000" height="5000" fill="white"/>
</clipPath>
</defs>
</svg>
