<svg width="5000" height="5000" viewBox="0 0 5000 5000" fill="none" xmlns="http://www.w3.org/2000/svg">
<rect width="5000" height="5000" fill="white"/>
<path fill-rule="evenodd" clip-rule="evenodd" d="M4375 2472.5C4479.93 2472.5 4565 2387.43 4565 2282.5C4565 2177.57 4479.93 2092.5 4375 2092.5C4270.07 2092.5 4185 2177.57 4185 2282.5C4185 2387.43 4270.07 2472.5 4375 2472.5ZM4375 2472.5L4288.4 2907.5H4461.6L4375 2472.5ZM4322 2592.5C4322 2697.43 4236.93 2782.5 4132 2782.5C4027.07 2782.5 3942 2697.43 3942 2592.5C3942 2487.57 4027.07 2402.5 4132 2402.5C4236.93 2402.5 4322 2487.57 4322 2592.5ZM4618 2782.5C4722.93 2782.5 4808 2697.43 4808 2592.5C4808 2487.57 4722.93 2402.5 4618 2402.5C4513.07 2402.5 4428 2487.57 4428 2592.5C4428 2697.43 4513.07 2782.5 4618 2782.5Z" fill="black"/>
<path fill-rule="evenodd" clip-rule="evenodd" d="M2500 1222.5C2604.93 1222.5 2690 1137.43 2690 1032.5C2690 927.566 2604.93 842.5 2500 842.5C2395.07 842.5 2310 927.566 2310 1032.5C2310 1137.43 2395.07 1222.5 2500 1222.5ZM2500 1222.5L2413.4 1657.5H2586.6L2500 1222.5ZM2447 1342.5C2447 1447.43 2361.93 1532.5 2257 1532.5C2152.07 1532.5 2067 1447.43 2067 1342.5C2067 1237.57 2152.07 1152.5 2257 1152.5C2361.93 1152.5 2447 1237.57 2447 1342.5ZM2743 1532.5C2847.93 1532.5 2933 1447.43 2933 1342.5C2933 1237.57 2847.93 1152.5 2743 1152.5C2638.07 1152.5 2553 1237.57 2553 1342.5C2553 1447.43 2638.07 1532.5 2743 1532.5Z" fill="black"/>
<path fill-rule="evenodd" clip-rule="evenodd" d="M2500 2472.5C2604.93 2472.5 2690 2387.43 2690 2282.5C2690 2177.57 2604.93 2092.5 2500 2092.5C2395.07 2092.5 2310 2177.57 2310 2282.5C2310 2387.43 2395.07 2472.5 2500 2472.5ZM2500 2472.5L2413.4 2907.5H2586.6L2500 2472.5ZM2447 2592.5C2447 2697.43 2361.93 2782.5 2257 2782.5C2152.07 2782.5 2067 2697.43 2067 2592.5C2067 2487.57 2152.07 2402.5 2257 2402.5C2361.93 2402.5 2447 2487.57 2447 2592.5ZM2743 2782.5C2847.93 2782.5 2933 2697.43 2933 2592.5C2933 2487.57 2847.93 2402.5 2743 2402.5C2638.07 2402.5 2553 2487.57 2553 2592.5C2553 2697.43 2638.07 2782.5 2743 2782.5Z" fill="black"/>
<path fill-rule="evenodd" clip-rule="evenodd" d="M2500 3722.5C2604.93 3722.5 2690 3637.43 2690 3532.5C2690 3427.57 2604.93 3342.5 2500 3342.5C2395.07 3342.5 2310 3427.57 2310 3532.5C2310 3637.43 2395.07 3722.5 2500 3722.5ZM2500 3722.5L2413.4 4157.5H2586.6L2500 3722.5ZM2447 3842.5C2447 3947.43 2361.93 4032.5 2257 4032.5C2152.07 4032.5 2067 3947.43 2067 3842.5C2067 3737.57 2152.07 3652.5 2257 3652.5C2361.93 3652.5 2447 3737.57 2447 3842.5ZM2743 4032.5C2847.93 4032.5 2933 3947.43 2933 3842.5C2933 3737.57 2847.93 3652.5 2743 3652.5C2638.07 3652.5 2553 3737.57 2553 3842.5C2553 3947.43 2638.07 4032.5 2743 4032.5Z" fill="black"/>
<path fill-rule="evenodd" clip-rule="evenodd" d="M625 2472.5C729.934 2472.5 815 2387.43 815 2282.5C815 2177.57 729.934 2092.5 625 2092.5C520.066 2092.5 435 2177.57 435 2282.5C435 2387.43 520.066 2472.5 625 2472.5ZM625 2472.5L538.397 2907.5H711.603L625 2472.5ZM572 2592.5C572 2697.43 486.934 2782.5 382 2782.5C277.066 2782.5 192 2697.43 192 2592.5C192 2487.57 277.066 2402.5 382 2402.5C486.934 2402.5 572 2487.57 572 2592.5ZM868 2782.5C972.934 2782.5 1058 2697.43 1058 2592.5C1058 2487.57 972.934 2402.5 868 2402.5C763.066 2402.5 678 2487.57 678 2592.5C678 2697.43 763.066 2782.5 868 2782.5Z" fill="black"/>
</svg>
