<svg width="1250" height="1250" viewBox="0 0 1250 1250" fill="none" xmlns="http://www.w3.org/2000/svg">
<path fill-rule="evenodd" clip-rule="evenodd" d="M625 597.5C729.934 597.5 815 512.434 815 407.5C815 302.566 729.934 217.5 625 217.5C520.066 217.5 435 302.566 435 407.5C435 512.434 520.066 597.5 625 597.5ZM625 597.5L538.397 1032.5H711.603L625 597.5ZM572 717.5C572 822.434 486.934 907.5 382 907.5C277.066 907.5 192 822.434 192 717.5C192 612.566 277.066 527.5 382 527.5C486.934 527.5 572 612.566 572 717.5ZM868 907.5C972.934 907.5 1058 822.434 1058 717.5C1058 612.566 972.934 527.5 868 527.5C763.066 527.5 678 612.566 678 717.5C678 822.434 763.066 907.5 868 907.5Z" fill="black"/>
</svg>
