<svg width="5000" height="5000" viewBox="0 0 5000 5000" fill="none" xmlns="http://www.w3.org/2000/svg">
<g clip-path="url(#clip0)">
<rect width="5000" height="5000" fill="white"/>
<path fill-rule="evenodd" clip-rule="evenodd" d="M538.341 235C504.051 185.455 446.815 153 382 153C277.066 153 192 238.066 192 343C192 386.312 206.492 426.239 230.892 458.197L625 1037L1019.11 458.197C1043.51 426.239 1058 386.312 1058 343C1058 238.066 972.934 153 868 153C803.185 153 745.949 185.455 711.659 235H711.577L625.1 335.785L538.623 235H538.341Z" fill="#FF0000"/>
<path fill-rule="evenodd" clip-rule="evenodd" d="M538.341 4058C504.051 4008.45 446.815 3976 382 3976C277.066 3976 192 4061.07 192 4166C192 4209.31 206.492 4249.24 230.892 4281.2L625 4860L1019.11 4281.2C1043.51 4249.24 1058 4209.31 1058 4166C1058 4061.07 972.934 3976 868 3976C803.185 3976 745.949 4008.45 711.659 4058H711.577L625.1 4158.78L538.623 4058H538.341Z" fill="#FF0000"/>
<path fill-rule="evenodd" clip-rule="evenodd" d="M4288.34 3985C4254.05 3935.45 4196.82 3903 4132 3903C4027.07 3903 3942 3988.07 3942 4093C3942 4136.31 3956.49 4176.24 3980.89 4208.2L4375 4787L4769.11 4208.2C4793.51 4176.24 4808 4136.31 4808 4093C4808 3988.07 4722.93 3903 4618 3903C4553.18 3903 4495.95 3935.45 4461.66 3985H4461.58L4375.1 4085.78L4288.62 3985H4288.34Z" fill="#FF0000"/>
<path fill-rule="evenodd" clip-rule="evenodd" d="M4288.34 2735C4254.05 2685.45 4196.82 2653 4132 2653C4027.07 2653 3942 2738.07 3942 2843C3942 2886.31 3956.49 2926.24 3980.89 2958.2L4375 3537L4769.11 2958.2C4793.51 2926.24 4808 2886.31 4808 2843C4808 2738.07 4722.93 2653 4618 2653C4553.18 2653 4495.95 2685.45 4461.66 2735H4461.58L4375.1 2835.78L4288.62 2735H4288.34Z" fill="#FF0000"/>
<path fill-rule="evenodd" clip-rule="evenodd" d="M4288.34 1485C4254.05 1435.45 4196.82 1403 4132 1403C4027.07 1403 3942 1488.07 3942 1593C3942 1636.31 3956.49 1676.24 3980.89 1708.2L4375 2287L4769.11 1708.2C4793.51 1676.24 4808 1636.31 4808 1593C4808 1488.07 4722.93 1403 4618 1403C4553.18 1403 4495.95 1435.45 4461.66 1485H4461.58L4375.1 1585.78L4288.62 1485H4288.34Z" fill="#FF0000"/>
<path fill-rule="evenodd" clip-rule="evenodd" d="M2413.34 1483C2379.05 1433.45 2321.82 1401 2257 1401C2152.07 1401 2067 1486.07 2067 1591C2067 1634.31 2081.49 1674.24 2105.89 1706.2L2500 2285L2894.11 1706.2C2918.51 1674.24 2933 1634.31 2933 1591C2933 1486.07 2847.93 1401 2743 1401C2678.18 1401 2620.95 1433.45 2586.66 1483H2586.58L2500.1 1583.78L2413.62 1483H2413.34Z" fill="#FF0000"/>
<path fill-rule="evenodd" clip-rule="evenodd" d="M2413.34 2765C2379.05 2715.45 2321.82 2683 2257 2683C2152.07 2683 2067 2768.07 2067 2873C2067 2916.31 2081.49 2956.24 2105.89 2988.2L2500 3567L2894.11 2988.2C2918.51 2956.24 2933 2916.31 2933 2873C2933 2768.07 2847.93 2683 2743 2683C2678.18 2683 2620.95 2715.45 2586.66 2765H2586.58L2500.1 2865.78L2413.62 2765H2413.34Z" fill="#FF0000"/>
<path fill-rule="evenodd" clip-rule="evenodd" d="M4288.34 265C4254.05 215.455 4196.82 183 4132 183C4027.07 183 3942 268.066 3942 373C3942 416.312 3956.49 456.239 3980.89 488.197L4375 1067L4769.11 488.197C4793.51 456.239 4808 416.312 4808 373C4808 268.066 4722.93 183 4618 183C4553.18 183 4495.95 215.455 4461.66 265H4461.58L4375.1 365.785L4288.62 265H4288.34Z" fill="#FF0000"/>
<path fill-rule="evenodd" clip-rule="evenodd" d="M538.341 1515C504.051 1465.45 446.815 1433 382 1433C277.066 1433 192 1518.07 192 1623C192 1666.31 206.492 1706.24 230.892 1738.2L625 2317L1019.11 1738.2C1043.51 1706.24 1058 1666.31 1058 1623C1058 1518.07 972.934 1433 868 1433C803.185 1433 745.949 1465.45 711.659 1515H711.577L625.1 1615.78L538.623 1515H538.341Z" fill="#FF0000"/>
<path fill-rule="evenodd" clip-rule="evenodd" d="M538.341 2765C504.051 2715.45 446.815 2683 382 2683C277.066 2683 192 2768.07 192 2873C192 2916.31 206.492 2956.24 230.892 2988.2L625 3567L1019.11 2988.2C1043.51 2956.24 1058 2916.31 1058 2873C1058 2768.07 972.934 2683 868 2683C803.185 2683 745.949 2715.45 711.659 2765H711.577L625.1 2865.78L538.623 2765H538.341Z" fill="#FF0000"/>
</g>
<defs>
<clipPath id="clip0">
<rect width="5000" height="5000" fill="white"/>
</clipPath>
</defs>
</svg>
