<svg width="5000" height="5000" viewBox="0 0 5000 5000" fill="none" xmlns="http://www.w3.org/2000/svg">
<rect width="5000" height="5000" fill="white"/>
<path fill-rule="evenodd" clip-rule="evenodd" d="M4288.34 2140C4254.05 2090.45 4196.82 2058 4132 2058C4027.07 2058 3942 2143.07 3942 2248C3942 2291.31 3956.49 2331.24 3980.89 2363.2L4375 2942L4769.11 2363.2C4793.51 2331.24 4808 2291.31 4808 2248C4808 2143.07 4722.93 2058 4618 2058C4553.18 2058 4495.95 2090.45 4461.66 2140H4461.58L4375.1 2240.78L4288.62 2140H4288.34Z" fill="#FF0000"/>
<path fill-rule="evenodd" clip-rule="evenodd" d="M2413.34 890C2379.05 840.455 2321.82 808 2257 808C2152.07 808 2067 893.066 2067 998C2067 1041.31 2081.49 1081.24 2105.89 1113.2L2500 1692L2894.11 1113.2C2918.51 1081.24 2933 1041.31 2933 998C2933 893.066 2847.93 808 2743 808C2678.18 808 2620.95 840.455 2586.66 890H2586.58L2500.1 990.785L2413.62 890H2413.34Z" fill="#FF0000"/>
<path fill-rule="evenodd" clip-rule="evenodd" d="M2413.34 2140C2379.05 2090.45 2321.82 2058 2257 2058C2152.07 2058 2067 2143.07 2067 2248C2067 2291.31 2081.49 2331.24 2105.89 2363.2L2500 2942L2894.11 2363.2C2918.51 2331.24 2933 2291.31 2933 2248C2933 2143.07 2847.93 2058 2743 2058C2678.18 2058 2620.95 2090.45 2586.66 2140H2586.58L2500.1 2240.78L2413.62 2140H2413.34Z" fill="#FF0000"/>
<path fill-rule="evenodd" clip-rule="evenodd" d="M2413.34 3390C2379.05 3340.45 2321.82 3308 2257 3308C2152.07 3308 2067 3393.07 2067 3498C2067 3541.31 2081.49 3581.24 2105.89 3613.2L2500 4192L2894.11 3613.2C2918.51 3581.24 2933 3541.31 2933 3498C2933 3393.07 2847.93 3308 2743 3308C2678.18 3308 2620.95 3340.45 2586.66 3390H2586.58L2500.1 3490.78L2413.62 3390H2413.34Z" fill="#FF0000"/>
<path fill-rule="evenodd" clip-rule="evenodd" d="M538.341 2140C504.051 2090.45 446.815 2058 382 2058C277.066 2058 192 2143.07 192 2248C192 2291.31 206.492 2331.24 230.892 2363.2L625 2942L1019.11 2363.2C1043.51 2331.24 1058 2291.31 1058 2248C1058 2143.07 972.934 2058 868 2058C803.185 2058 745.949 2090.45 711.659 2140H711.577L625.1 2240.78L538.623 2140H538.341Z" fill="#FF0000"/>
</svg>
