<svg width="5000" height="5000" viewBox="0 0 5000 5000" fill="none" xmlns="http://www.w3.org/2000/svg">
<g clip-path="url(#clip0)">
<rect width="5000" height="5000" fill="white"/>
<path fill-rule="evenodd" clip-rule="evenodd" d="M625 222L941.965 511.5H941.801C980.594 546.286 1005 596.793 1005 653C1005 757.934 919.934 843 815 843C749.996 843 692.617 810.356 658.36 760.568L711.603 1028H538.397L591.64 760.568C557.383 810.356 500.004 843 435 843C330.066 843 245 757.934 245 653C245 596.793 269.406 546.286 308.199 511.5H308.035L625 222ZM620.342 611C620.535 611.856 620.723 612.714 620.904 613.574L621.416 611H620.342ZM628.584 611L629.096 613.574C629.277 612.714 629.465 611.856 629.658 611H628.584Z" fill="black"/>
<path fill-rule="evenodd" clip-rule="evenodd" d="M625 4045L941.965 4334.5H941.801C980.594 4369.29 1005 4419.79 1005 4476C1005 4580.93 919.934 4666 815 4666C749.996 4666 692.617 4633.36 658.36 4583.57L711.603 4851H538.397L591.64 4583.57C557.383 4633.36 500.004 4666 435 4666C330.066 4666 245 4580.93 245 4476C245 4419.79 269.406 4369.29 308.199 4334.5H308.035L625 4045ZM620.342 4434C620.535 4434.86 620.723 4435.71 620.904 4436.57L621.416 4434H620.342ZM628.584 4434L629.096 4436.57C629.277 4435.71 629.465 4434.86 629.658 4434H628.584Z" fill="black"/>
<path fill-rule="evenodd" clip-rule="evenodd" d="M4375 3972L4691.97 4261.5H4691.8C4730.59 4296.29 4755 4346.79 4755 4403C4755 4507.93 4669.93 4593 4565 4593C4500 4593 4442.62 4560.36 4408.36 4510.57L4461.6 4778H4288.4L4341.64 4510.57C4307.38 4560.36 4250 4593 4185 4593C4080.07 4593 3995 4507.93 3995 4403C3995 4346.79 4019.41 4296.29 4058.2 4261.5H4058.03L4375 3972ZM4370.34 4361C4370.54 4361.86 4370.72 4362.71 4370.9 4363.57L4371.42 4361H4370.34ZM4378.58 4361L4379.1 4363.57C4379.28 4362.71 4379.46 4361.86 4379.66 4361H4378.58Z" fill="black"/>
<path fill-rule="evenodd" clip-rule="evenodd" d="M4375 2722L4691.97 3011.5H4691.8C4730.59 3046.29 4755 3096.79 4755 3153C4755 3257.93 4669.93 3343 4565 3343C4500 3343 4442.62 3310.36 4408.36 3260.57L4461.6 3528H4288.4L4341.64 3260.57C4307.38 3310.36 4250 3343 4185 3343C4080.07 3343 3995 3257.93 3995 3153C3995 3096.79 4019.41 3046.29 4058.2 3011.5H4058.03L4375 2722ZM4370.34 3111C4370.54 3111.86 4370.72 3112.71 4370.9 3113.57L4371.42 3111H4370.34ZM4378.58 3111L4379.1 3113.57C4379.28 3112.71 4379.46 3111.86 4379.66 3111H4378.58Z" fill="black"/>
<path fill-rule="evenodd" clip-rule="evenodd" d="M4375 1472L4691.97 1761.5H4691.8C4730.59 1796.29 4755 1846.79 4755 1903C4755 2007.93 4669.93 2093 4565 2093C4500 2093 4442.62 2060.36 4408.36 2010.57L4461.6 2278H4288.4L4341.64 2010.57C4307.38 2060.36 4250 2093 4185 2093C4080.07 2093 3995 2007.93 3995 1903C3995 1846.79 4019.41 1796.29 4058.2 1761.5H4058.03L4375 1472ZM4370.34 1861C4370.54 1861.86 4370.72 1862.71 4370.9 1863.57L4371.42 1861H4370.34ZM4378.58 1861L4379.1 1863.57C4379.28 1862.71 4379.46 1861.86 4379.66 1861H4378.58Z" fill="black"/>
<path fill-rule="evenodd" clip-rule="evenodd" d="M2500 1472L2816.97 1761.5H2816.8C2855.59 1796.29 2880 1846.79 2880 1903C2880 2007.93 2794.93 2093 2690 2093C2625 2093 2567.62 2060.36 2533.36 2010.57L2586.6 2278H2413.4L2466.64 2010.57C2432.38 2060.36 2375 2093 2310 2093C2205.07 2093 2120 2007.93 2120 1903C2120 1846.79 2144.41 1796.29 2183.2 1761.5H2183.03L2500 1472ZM2495.34 1861C2495.54 1861.86 2495.72 1862.71 2495.9 1863.57L2496.42 1861H2495.34ZM2503.58 1861L2504.1 1863.57C2504.28 1862.71 2504.46 1861.86 2504.66 1861H2503.58Z" fill="black"/>
<path fill-rule="evenodd" clip-rule="evenodd" d="M2500 2722L2816.97 3011.5H2816.8C2855.59 3046.29 2880 3096.79 2880 3153C2880 3257.93 2794.93 3343 2690 3343C2625 3343 2567.62 3310.36 2533.36 3260.57L2586.6 3528H2413.4L2466.64 3260.57C2432.38 3310.36 2375 3343 2310 3343C2205.07 3343 2120 3257.93 2120 3153C2120 3096.79 2144.41 3046.29 2183.2 3011.5H2183.03L2500 2722ZM2495.34 3111C2495.54 3111.86 2495.72 3112.71 2495.9 3113.57L2496.42 3111H2495.34ZM2503.58 3111L2504.1 3113.57C2504.28 3112.71 2504.46 3111.86 2504.66 3111H2503.58Z" fill="black"/>
<path fill-rule="evenodd" clip-rule="evenodd" d="M4375 222L4691.97 511.5H4691.8C4730.59 546.286 4755 596.793 4755 653C4755 757.934 4669.93 843 4565 843C4500 843 4442.62 810.356 4408.36 760.568L4461.6 1028H4288.4L4341.64 760.568C4307.38 810.356 4250 843 4185 843C4080.07 843 3995 757.934 3995 653C3995 596.793 4019.41 546.286 4058.2 511.5H4058.03L4375 222ZM4370.34 611C4370.54 611.856 4370.72 612.714 4370.9 613.574L4371.42 611H4370.34ZM4378.58 611L4379.1 613.574C4379.28 612.714 4379.46 611.856 4379.66 611H4378.58Z" fill="black"/>
<path fill-rule="evenodd" clip-rule="evenodd" d="M625 1472L941.965 1761.5H941.801C980.594 1796.29 1005 1846.79 1005 1903C1005 2007.93 919.934 2093 815 2093C749.996 2093 692.617 2060.36 658.36 2010.57L711.603 2278H538.397L591.64 2010.57C557.383 2060.36 500.004 2093 435 2093C330.066 2093 245 2007.93 245 1903C245 1846.79 269.406 1796.29 308.199 1761.5H308.035L625 1472ZM620.342 1861C620.535 1861.86 620.723 1862.71 620.904 1863.57L621.416 1861H620.342ZM628.584 1861L629.096 1863.57C629.277 1862.71 629.465 1861.86 629.658 1861H628.584Z" fill="black"/>
<path fill-rule="evenodd" clip-rule="evenodd" d="M625 2722L941.965 3011.5H941.801C980.594 3046.29 1005 3096.79 1005 3153C1005 3257.93 919.934 3343 815 3343C749.996 3343 692.617 3310.36 658.36 3260.57L711.603 3528H538.397L591.64 3260.57C557.383 3310.36 500.004 3343 435 3343C330.066 3343 245 3257.93 245 3153C245 3096.79 269.406 3046.29 308.199 3011.5H308.035L625 2722ZM620.342 3111C620.535 3111.86 620.723 3112.71 620.904 3113.57L621.416 3111H620.342ZM628.584 3111L629.096 3113.57C629.277 3112.71 629.465 3111.86 629.658 3111H628.584Z" fill="black"/>
</g>
<defs>
<clipPath id="clip0">
<rect width="5000" height="5000" fill="white"/>
</clipPath>
</defs>
</svg>
