<svg width="1250" height="1250" viewBox="0 0 1250 1250" fill="none" xmlns="http://www.w3.org/2000/svg">
<path fill-rule="evenodd" clip-rule="evenodd" d="M625 222L941.965 511.5H941.801C980.594 546.286 1005 596.793 1005 653C1005 757.934 919.934 843 815 843C749.996 843 692.617 810.356 658.36 760.568L711.603 1028H538.397L591.64 760.568C557.383 810.356 500.004 843 435 843C330.066 843 245 757.934 245 653C245 596.793 269.406 546.286 308.199 511.5H308.035L625 222ZM620.342 611C620.535 611.856 620.723 612.714 620.904 613.574L621.417 611H620.342ZM628.583 611L629.096 613.574C629.277 612.714 629.465 611.856 629.658 611H628.583Z" fill="black"/>
</svg>
