<svg width="5000" height="5000" viewBox="0 0 5000 5000" fill="none" xmlns="http://www.w3.org/2000/svg">
<rect width="5000" height="5000" fill="white"/>
<path fill-rule="evenodd" clip-rule="evenodd" d="M4375 2097L4691.97 2386.5H4691.8C4730.59 2421.29 4755 2471.79 4755 2528C4755 2632.93 4669.93 2718 4565 2718C4500 2718 4442.62 2685.36 4408.36 2635.57L4461.6 2903H4288.4L4341.64 2635.57C4307.38 2685.36 4250 2718 4185 2718C4080.07 2718 3995 2632.93 3995 2528C3995 2471.79 4019.41 2421.29 4058.2 2386.5H4058.03L4375 2097ZM4370.34 2486C4370.54 2486.86 4370.72 2487.71 4370.9 2488.57L4371.42 2486H4370.34ZM4378.58 2486L4379.1 2488.57C4379.28 2487.71 4379.46 2486.86 4379.66 2486H4378.58Z" fill="black"/>
<path fill-rule="evenodd" clip-rule="evenodd" d="M2500 847L2816.97 1136.5H2816.8C2855.59 1171.29 2880 1221.79 2880 1278C2880 1382.93 2794.93 1468 2690 1468C2625 1468 2567.62 1435.36 2533.36 1385.57L2586.6 1653H2413.4L2466.64 1385.57C2432.38 1435.36 2375 1468 2310 1468C2205.07 1468 2120 1382.93 2120 1278C2120 1221.79 2144.41 1171.29 2183.2 1136.5H2183.03L2500 847ZM2495.34 1236C2495.54 1236.86 2495.72 1237.71 2495.9 1238.57L2496.42 1236H2495.34ZM2503.58 1236L2504.1 1238.57C2504.28 1237.71 2504.46 1236.86 2504.66 1236H2503.58Z" fill="black"/>
<path fill-rule="evenodd" clip-rule="evenodd" d="M2500 2097L2816.97 2386.5H2816.8C2855.59 2421.29 2880 2471.79 2880 2528C2880 2632.93 2794.93 2718 2690 2718C2625 2718 2567.62 2685.36 2533.36 2635.57L2586.6 2903H2413.4L2466.64 2635.57C2432.38 2685.36 2375 2718 2310 2718C2205.07 2718 2120 2632.93 2120 2528C2120 2471.79 2144.41 2421.29 2183.2 2386.5H2183.03L2500 2097ZM2495.34 2486C2495.54 2486.86 2495.72 2487.71 2495.9 2488.57L2496.42 2486H2495.34ZM2503.58 2486L2504.1 2488.57C2504.28 2487.71 2504.46 2486.86 2504.66 2486H2503.58Z" fill="black"/>
<path fill-rule="evenodd" clip-rule="evenodd" d="M2500 3347L2816.97 3636.5H2816.8C2855.59 3671.29 2880 3721.79 2880 3778C2880 3882.93 2794.93 3968 2690 3968C2625 3968 2567.62 3935.36 2533.36 3885.57L2586.6 4153H2413.4L2466.64 3885.57C2432.38 3935.36 2375 3968 2310 3968C2205.07 3968 2120 3882.93 2120 3778C2120 3721.79 2144.41 3671.29 2183.2 3636.5H2183.03L2500 3347ZM2495.34 3736C2495.54 3736.86 2495.72 3737.71 2495.9 3738.57L2496.42 3736H2495.34ZM2503.58 3736L2504.1 3738.57C2504.28 3737.71 2504.46 3736.86 2504.66 3736H2503.58Z" fill="black"/>
<path fill-rule="evenodd" clip-rule="evenodd" d="M625 2097L941.965 2386.5H941.801C980.594 2421.29 1005 2471.79 1005 2528C1005 2632.93 919.934 2718 815 2718C749.996 2718 692.617 2685.36 658.36 2635.57L711.603 2903H538.397L591.64 2635.57C557.383 2685.36 500.004 2718 435 2718C330.066 2718 245 2632.93 245 2528C245 2471.79 269.406 2421.29 308.199 2386.5H308.035L625 2097ZM620.342 2486C620.535 2486.86 620.723 2487.71 620.904 2488.57L621.416 2486H620.342ZM628.584 2486L629.096 2488.57C629.277 2487.71 629.465 2486.86 629.658 2486H628.584Z" fill="black"/>
</svg>
